<svg width="264" height="43" viewBox="0 0 264 43" fill="none" xmlns="http://www.w3.org/2000/svg">
<path fill-rule="evenodd" clip-rule="evenodd" d="M230.122 29.6576V18.4984H223.977V30.844C223.977 35.0211 228.301 38.4111 233.636 38.4111C238.973 38.4111 243.295 35.0211 243.295 30.844V18.4984H237.197V29.6576C237.197 31.5136 235.611 33.0218 233.661 33.0218C231.71 33.0218 230.125 31.5147 230.125 29.6576H230.122Z" fill="white"/>
<path d="M263.343 5.23425H257.154V37.7158H263.343V5.23425ZM252.884 5.23425H246.695V37.7158H252.884V5.23425Z" fill="white"/>
<path fill-rule="evenodd" clip-rule="evenodd" d="M133.474 12.0496H130.109V37.7157H123.525V6.72485H134.843C139.996 6.72485 144.17 10.822 144.17 15.8766C144.17 20.1805 141.142 23.789 137.066 24.7687L146.161 37.7157H138.399L131.82 27.5691V20.157H133.348C135.778 20.157 137.749 18.3398 137.749 16.1009C137.749 13.8609 135.904 12.0449 133.47 12.0449L133.474 12.0496Z" fill="white"/>
<path d="M165.61 29.3687C165.651 28.9458 165.671 28.5112 165.666 28.0683C165.76 21.3716 161.327 17.6938 155.678 17.6938C150.029 17.6938 145.449 22.3302 145.449 28.0484C145.449 33.7654 150.029 38.4112 155.678 38.4112C159.989 38.4112 163.354 36.4601 165.086 33.4036L160.063 31.0872C159.42 32.4698 157.925 33.4447 156.185 33.44C153.776 33.4365 151.997 31.6687 151.975 29.5836V29.3722H165.606L165.61 29.3687ZM151.956 25.8095C151.973 24.8187 152.379 23.8743 153.086 23.1798C153.793 22.4852 154.744 22.0961 155.735 22.0961C156.726 22.0961 157.677 22.4852 158.384 23.1798C159.091 23.8743 159.497 24.8187 159.514 25.8095H151.951H151.956ZM190.243 37.7158L190.235 5.23425H184.067V20.6034C182.425 18.9777 180.239 17.9945 177.85 17.9945C172.737 17.9945 168.596 22.5252 168.596 28.1165C168.596 33.7079 172.737 38.2397 177.85 38.2397C180.263 38.2397 182.45 37.2118 184.095 35.5532V37.7146H190.243V37.7158ZM179.604 32.9702C177.098 32.9702 175.061 30.7419 175.061 27.999C175.061 25.2562 177.093 23.0303 179.604 23.0303C182.116 23.0303 184.148 25.2562 184.148 27.999C184.148 30.7419 182.116 32.969 179.604 32.969V32.9702ZM216.403 20.8466C218.098 19.2655 219.134 17.1488 219.134 14.8241C219.134 12.7191 218.321 10.781 216.903 9.26097C215.428 7.63525 212.815 6.72489 209.283 6.72489H198.706V37.7158H212.368C217.602 37.63 221.82 33.6761 221.82 28.8283C221.82 25.3009 220.576 22.7848 216.408 20.8466H216.403ZM211.223 32.3347H205.301V12.0484H209.43C211.243 12.0484 212.713 13.707 212.713 15.523C212.714 15.9543 212.629 16.3815 212.464 16.78C212.299 17.1785 212.057 17.5407 211.752 17.8457C211.448 18.1507 211.085 18.3926 210.687 18.5577C210.289 18.7227 209.861 18.8075 209.43 18.8074H207.281V24.3788H211.223C213.42 24.3788 215.083 26.1501 215.083 28.3491C215.005 30.6197 213.612 32.189 211.223 32.3347Z" fill="white"/>
<path d="M55.5223 42.2875C67.1984 42.2875 76.6661 32.821 76.6661 21.1438C76.6661 9.46653 67.1984 0 55.5223 0C43.8451 0 34.3785 9.46653 34.3785 21.1438C34.3785 32.821 43.8451 42.2875 55.5223 42.2875Z" fill="white" fill-opacity="0.3"/>
<path d="M54.0141 30.9533C52.8195 30.2791 52.5834 28.9506 51.9585 28.1377C51.7024 27.8158 51.2795 27.4587 51.1656 27.1663C50.0884 24.4105 49.7231 22.8623 49.3448 20.1724C49.1499 18.7945 48.236 17.6328 46.9027 16.0023C46.3213 15.2917 45.4932 14.117 44.7766 13.4228C42.3721 11.3954 41.0718 10.2689 39.4672 9.18818C39.1537 8.97553 38.8215 8.79191 38.4746 8.63961H38.4664C38.4602 8.63863 38.4544 8.63576 38.4499 8.63139C37.9143 8.39646 37.4303 8.33068 36.7714 8.29426C36.6837 8.28918 36.596 8.28644 36.5082 8.28604C35.3124 8.28604 34.1754 8.72066 33.0289 9.60635C32.1961 10.1514 31.2411 10.4556 30.3155 10.7481C29.1479 11.1181 27.9368 11.5046 26.9501 12.3656C26.7739 12.4925 26.6129 12.671 26.4544 12.8378C26.2382 13.0692 26.0844 13.3335 25.7555 13.4392C25.47 13.5039 25.2668 13.5039 25.0354 13.5238C24.6707 13.5527 24.3082 13.6045 23.95 13.6789C22.7354 13.9667 21.8051 14.7149 20.8254 15.5078C20.7162 15.5971 20.6022 15.6864 20.4918 15.7756C19.8575 16.2796 18.7651 16.7388 18.1472 16.7588C16.4205 16.8117 15.1977 17.2181 13.9255 18.1649C12.6123 19.1692 11.2062 20.2053 9.64978 20.8431C9.29228 20.9818 8.91262 21.0547 8.52916 21.0581C8.12273 21.0581 7.54128 20.9688 7.07846 20.5389C6.48879 19.9938 6.29379 18.9448 6.64736 18.2424C7.17596 17.2017 8.25194 16.3524 9.13058 15.7263C10.2641 14.8688 11.3612 13.7435 10.8738 11.8781C10.3487 10.1714 8.26486 9.6228 6.88699 9.25748C6.49701 9.15529 6.15871 9.06601 5.96019 8.97321C5.52557 8.77 5.22016 8.56209 4.92415 8.36239C4.63655 8.15408 4.32741 7.97726 4.00204 7.83498C3.9471 7.81456 3.88914 7.80344 3.83055 7.80208C3.63555 7.80208 3.48167 7.89606 3.36421 8.08283C2.86733 8.94855 2.72167 9.83071 2.92959 10.6917C3.25027 12.106 4.64458 13.3934 6.0988 13.6213C6.24446 13.6577 6.41126 13.6707 6.57454 13.6871C6.72489 13.6988 6.87877 13.7153 7.0209 13.7435C6.05612 14.489 5.17577 15.3379 4.39555 16.2749C3.33132 17.527 3.03883 19.5956 3.7166 21.0827C4.30276 22.5698 5.78987 23.7809 7.33454 24.0252C7.63877 24.0816 7.96885 24.1098 8.34122 24.1098C8.87803 24.1098 9.41837 24.0534 9.93522 23.997C10.0609 23.9853 10.1913 23.9677 10.3123 23.9559C10.3651 25.1341 10.4063 25.8659 11.0605 27.5363C11.1005 27.642 11.0723 27.8205 10.9348 27.9427C10.8209 28.0437 9.86944 28.4384 9.59692 28.4948C9.48166 28.514 9.36486 28.5222 9.24805 28.5195H8.85806C8.72885 28.5195 8.56087 28.5195 8.39877 28.5429C7.80087 28.6287 7.50486 29.1326 7.29342 29.6213C7.16421 29.9173 7.07024 30.1781 6.98801 30.4012C6.7848 30.958 6.65911 31.3034 6.26913 31.5148C6.26913 31.5148 5.45627 30.7912 5.31766 30.6926C5.12972 30.5814 4.91577 30.5219 4.69744 30.5199C4.18529 30.5199 3.7307 30.8453 3.29138 31.1577C3.15839 31.2571 3.02122 31.3508 2.88025 31.4385C2.51141 31.6699 2.23419 32.0646 2.15431 32.4745C1.55642 32.7752 0.971438 33.137 0.698919 33.7349C0.569707 33.991 0.545039 34.3034 0.520372 34.6042C0.510865 34.747 0.494401 34.8893 0.471036 35.0306C0.424676 35.1262 0.371688 35.2184 0.312458 35.3066C0.146832 35.5345 0 35.8716 0 36.0795C0 36.5177 0.162102 36.6845 0.40643 36.8924C0.703617 37.1038 1.51178 37.3505 2.08853 37.4938C2.13069 37.505 2.17414 37.5105 2.21775 37.5103C2.39394 37.5103 2.5349 37.4198 2.66999 37.3341C2.73459 37.2941 2.7992 37.2495 2.8732 37.2166C3.34894 37.3305 4.05138 37.4774 4.73385 37.4774C5.08742 37.4774 5.40928 37.4362 5.69707 37.3599C6.39246 37.172 6.98566 36.2299 7.30635 35.7213C7.38387 35.5991 7.4614 35.4781 7.48137 35.4617C7.50173 35.4529 7.52383 35.4489 7.54597 35.4499C7.65169 35.4499 7.82319 35.4981 8.00526 35.5509C8.2167 35.612 8.46103 35.6801 8.68069 35.7013C9.46418 35.7706 10.2124 35.2831 10.6964 34.9213C10.8949 34.7745 11.1099 34.5677 11.3213 34.3692C11.5562 34.1449 11.797 33.9135 12.005 33.7749C12.2794 33.6637 12.5734 33.6086 12.8695 33.6127C12.9752 33.6127 13.0927 33.6163 13.2196 33.6292C13.7834 33.7467 14.5234 33.8853 15.2435 33.8853C15.9624 33.8853 16.5074 33.7631 16.982 33.5153L17.4213 33.2874C17.897 33.0442 18.3845 32.7964 18.8473 32.5438C19.7412 32.0599 20.0995 31.2634 20.392 30.6256L20.4648 30.4635C20.6363 30.0935 20.8959 29.4228 20.9652 29.256C21.1027 29.2759 21.246 29.2842 21.3963 29.2842C21.8791 29.2842 22.3548 29.1831 22.8141 29.0845C23.2652 28.9881 23.7362 28.8906 24.2073 28.8906C24.4563 28.8906 24.683 28.9141 24.9109 28.9717C25.7566 29.1385 26.8702 29.33 28.0037 29.33C28.591 29.3353 29.177 29.2739 29.7505 29.1467C29.8808 29.2724 30.0277 29.3816 30.1698 29.4874C30.3108 29.5931 30.4411 29.6906 30.5633 29.8092C30.433 29.8328 30.3017 29.8504 30.1698 29.8621C29.7751 29.9067 29.3652 29.9514 29.0645 30.2732C28.7397 30.1402 28.3909 30.0762 28.0402 30.0853C27.6425 30.0945 27.2459 30.1325 26.8538 30.1992C26.6952 30.2227 26.5401 30.2438 26.3898 30.2638C25.7848 30.3366 25.3702 30.5692 25.1552 30.9627C25.0248 31.2188 24.9273 31.4878 25.1388 31.9259L26.3287 33.9005C26.4755 34.1566 26.7187 34.3645 26.8855 34.3763C26.9747 34.3845 27.0934 34.3763 27.2226 34.3645C27.3248 34.3563 27.4305 34.3481 27.5315 34.3481C27.723 34.3481 27.8369 34.381 27.8781 34.4456C27.938 34.5396 27.9955 34.6288 28.0519 34.7216C28.2962 35.1046 28.5476 35.5028 28.9294 35.8399C29.5073 36.3438 30.4376 36.5541 31.3116 36.352C31.6405 36.2299 31.9694 36.1112 32.2983 35.9938C33.3273 35.6238 34.3915 35.242 35.4229 34.8038L37.1343 34.5595C37.6993 34.4491 38.1304 33.6856 38.2726 33.3684L38.309 33.2956C38.309 33.2956 38.8258 32.2713 38.9832 31.6499C38.9915 31.7556 38.9915 31.8966 38.9915 32.0927C38.9915 33.0595 39.1629 34.2835 40.8122 34.2189C41.7307 34.1813 42.95 33.6374 43.8193 33.4788C44.7296 33.3238 45.916 33.7102 46.7982 33.2791C47.6557 32.9303 48.1479 32.2631 48.2853 32.4017C48.854 32.9571 49.5298 33.391 50.2715 33.677C51.0133 33.9629 51.8054 34.0949 52.5998 34.065C53.832 34.0251 53.9659 33.0372 53.1049 32.5896C54.7858 32.7846 55.2827 31.8754 54.9691 31.5818C54.7694 31.395 54.6519 31.3022 54.0141 30.9439V30.9533ZM38.9092 30.0348C38.2749 29.1773 37.8614 28.5688 37.8004 27.7841C38.6085 27.6901 39.3485 27.4223 40.5514 27.3577C40.2378 28.288 39.1618 28.7309 38.9057 30.0312L38.9092 30.0348ZM110.388 35.4934C110.331 35.3794 110.274 35.2702 110.241 35.188C110.188 35.0059 110.18 34.8144 110.168 34.6112C110.157 34.388 110.145 34.1554 110.074 33.937C109.884 33.3026 109.205 32.908 108.657 32.6848C108.637 32.4451 108.592 32.1855 108.369 32.027C107.421 31.3515 106.925 30.9698 106.657 30.7666C106.499 30.6444 106.442 30.5998 106.41 30.588C106.297 30.5357 106.175 30.5077 106.051 30.5058C105.633 30.5058 105.299 30.8394 104.975 31.1565L104.752 31.3762C104.744 31.3844 104.74 31.3844 104.727 31.3844C104.625 31.3844 104.414 31.072 104.361 30.9298C104.267 30.6773 104.195 30.4377 104.121 30.2063C104 29.7753 103.844 29.3549 103.654 28.9494C103.297 28.2387 102.533 28.227 101.858 28.2152H101.667C101.359 28.2152 100.951 28.1706 100.878 27.9662C100.805 27.7641 100.956 27.3812 101.05 27.1016C101.114 26.9067 101.175 26.7234 101.195 26.5449C101.367 25.7813 101.378 24.7641 101.228 23.9395C101.398 23.9442 101.569 23.963 101.748 23.9841C101.902 24.0053 102.061 24.0205 102.228 24.0287H102.375C103.391 24.0287 104.248 23.8291 104.995 23.4238C106.502 22.517 107.426 21.0545 107.462 19.4981C107.409 18.6853 107.218 18.0145 106.804 17.1852C106.247 16.0881 105.321 15.0074 103.967 13.8856C104.751 13.7235 105.402 13.5332 106.003 13.1538C107.231 12.3738 107.774 10.9596 107.535 9.16821C107.47 8.74533 107.307 8.01352 106.95 7.82323C106.899 7.79579 106.841 7.78165 106.783 7.78212C106.523 7.78212 106.271 8.06286 106.048 8.31071C105.965 8.40468 105.886 8.48926 105.816 8.55034C105.398 8.92388 104.906 9.02138 104.39 9.12357C104.118 9.17643 103.838 9.23281 103.573 9.33031C102.337 9.73322 100.237 10.6506 100.049 12.321C99.8667 13.9714 101.041 15.0814 102.18 16.1539C102.557 16.511 102.92 16.8481 103.227 17.2064C103.885 17.9664 104.447 18.7217 104.3 19.5756C104.248 19.8681 103.833 20.3157 103.439 20.4942C103.138 20.5999 102.826 20.6516 102.508 20.6516C101.456 20.6516 100.443 20.076 99.5542 19.5627L99.4274 19.4899C97.3635 18.0592 95.2303 16.5767 92.585 16.2948C91.5772 16.101 90.7032 15.4914 89.854 14.897C89.659 14.7596 89.4624 14.6245 89.2643 14.4917C88.3744 13.9693 87.3941 13.619 86.3746 13.4592C85.846 13.3899 85.4278 13.0446 84.985 12.6839C84.7558 12.4852 84.5116 12.3045 84.2544 12.1436C83.2171 11.4737 82.0606 11.0099 80.8479 10.7775C80.7281 10.7416 80.6066 10.7118 80.4837 10.6882C80.1666 10.6224 79.8365 10.5496 79.6086 10.31C79.2598 9.89884 78.7793 9.37025 78.199 8.95677C77.4226 8.4364 76.2162 7.88314 75.1637 7.88314C74.9509 7.88058 74.7388 7.90665 74.5329 7.96066C73.948 8.10749 73.4934 8.44814 73.0129 8.80994L72.8309 8.94385C71.8677 9.69563 70.5873 10.7293 69.5794 11.4482C66.5723 13.5896 65.4423 14.5282 63.9517 16.1586C60.1152 20.3474 61.2817 26.6177 57.9656 30.2509C57.1081 31.193 56.8685 31.3151 56.556 31.5759C56.1684 31.9001 56.0791 33.628 58.5905 32.7823C57.4453 33.7619 58.1677 34.2165 58.9194 34.233C60.2456 34.2612 61.7081 33.8019 63.1423 32.2748C64.1384 33.7079 65.8734 33.0466 66.7755 33.1206C67.6213 33.1887 69.1777 34.1073 70.0834 34.0544C71.4648 33.9687 71.9734 32.5873 71.8348 31.8191C72.0579 31.8191 72.119 31.7662 72.1801 31.657C72.3434 32.4569 72.4526 33.0055 72.6077 33.4072C72.6194 33.4366 72.6394 33.473 72.6594 33.5129V33.5223C72.758 33.6961 72.9613 34.0826 73.1645 34.2694C73.3994 34.5536 73.753 34.5912 74.0337 34.5912C74.1477 34.5912 74.2616 34.583 74.3708 34.5795C74.4965 34.5701 74.6187 34.5666 74.7362 34.5666C74.8411 34.6445 74.9415 34.7285 75.0369 34.8179C75.2601 35.0129 75.4879 35.2173 75.7687 35.2937C77.0772 35.6308 78.1626 35.9315 79.2151 36.3015C79.4301 36.3708 79.759 36.4601 80.0879 36.4601C80.1936 36.4601 80.2993 36.4519 80.3968 36.4319C81.3976 36.2158 82.288 35.3595 82.5065 34.388C82.5229 34.2377 82.6322 34.2247 82.8189 34.2165C82.954 34.213 83.1079 34.2048 83.1937 34.1073C83.7375 33.6727 84.0711 33.0748 84.3965 32.5015C84.4646 32.3805 84.5339 32.2548 84.6079 32.1327C84.6922 31.988 84.7398 31.825 84.7468 31.6578C84.7537 31.4906 84.7198 31.3241 84.6479 31.173C84.5422 30.9616 84.3519 30.8077 84.0746 30.7149C83.5543 30.568 82.974 30.5551 82.4736 30.5551H81.9215C81.6607 30.5551 81.36 30.5551 81.0675 30.5269L80.8561 30.2955C80.7022 30.1569 80.5072 30.1252 80.3158 30.0923L80.1783 30.0688L80.6529 29.6976C80.8444 29.7023 81.0311 29.7059 81.2179 29.7059C82.3232 29.7059 83.3393 29.6084 84.2462 29.4181C85.0528 29.224 85.8787 29.1216 86.7082 29.1127C86.8186 29.1127 86.9314 29.1127 87.0453 29.1209C87.1793 29.1291 87.3179 29.1373 87.4518 29.1491C87.9475 29.182 88.4561 29.2195 88.9636 29.2195C89.6343 29.2195 90.1793 29.1573 90.6668 29.0281C90.7279 29.2712 90.7761 29.5109 90.8207 29.747C90.9992 30.6327 91.166 31.4702 91.8485 32.1973C92.2596 32.7212 92.7953 33.0219 93.3168 33.3191C93.5846 33.4694 93.8572 33.6398 94.1203 33.8148C94.4703 33.9933 94.7511 34.0215 95.1528 34.0215C95.7131 34.0215 96.4285 33.7819 96.8349 33.7819C98.5299 33.7819 99.8385 34.7005 101.256 35.8094C101.509 35.9762 101.818 36.0619 102.171 36.0619C102.601 36.0619 103.085 35.9327 103.508 35.7036L103.541 35.753C103.799 36.1183 104.073 36.5012 104.438 36.7984C104.962 37.273 105.641 37.3388 106.236 37.3388C106.434 37.3388 106.641 37.3294 106.841 37.3211C107.125 37.3094 107.413 37.2976 107.69 37.3094C107.799 37.4633 108.011 37.5819 108.177 37.5737C108.344 37.5655 110.177 36.9676 110.274 36.9358C110.372 36.903 110.509 36.8219 110.509 36.8219C110.953 36.594 110.631 35.9527 110.396 35.4804L110.388 35.4934ZM72.4397 30.0947C71.9969 29.2137 71.6503 28.4208 71.1018 27.5926C72.3587 27.8887 73.7917 27.7454 73.7917 27.7454C73.3865 28.3233 72.9225 29.1479 72.4397 30.0947Z" fill="black" fill-opacity="0.2"/>
<path d="M80.2546 30.9662C80.1889 30.8839 80.0597 30.8722 79.9857 30.8722C79.9539 30.8722 79.9246 30.8722 79.8917 30.8769C79.665 30.9051 79.4571 30.9168 79.2421 30.9168C79.1312 30.9164 79.0204 30.9136 78.9097 30.9086C78.8192 30.9086 78.7382 30.9004 78.6571 30.9004C78.5232 30.9004 78.414 30.9086 78.3047 30.9298H78.2789L78.2671 30.9532C78.2507 30.9861 77.8325 31.7168 77.8889 32.1808C77.95 32.6812 78.4574 32.7822 78.8439 32.8597C78.9825 32.8879 79.1411 32.9161 79.3032 32.9161C79.5792 32.9161 79.7625 32.8221 79.8553 32.64C80.0578 32.1463 80.2025 31.6307 80.2864 31.1036C80.2933 31.0786 80.2941 31.0522 80.2885 31.0268C80.283 31.0015 80.2714 30.9778 80.2546 30.9579V30.9662ZM107.863 32.6154C107.623 32.27 107.205 31.9928 106.871 31.7696C106.738 31.687 106.61 31.5964 106.488 31.4983L106.42 31.4489C106.344 31.3838 106.248 31.3479 106.148 31.3479C105.769 31.3479 105.359 31.8025 105.351 31.9564C105.339 32.1843 105.664 32.5907 106.086 33.0958L106.176 33.2051C106.391 33.46 106.622 33.5986 106.866 33.615C107.114 33.615 107.309 33.5328 107.517 33.339C107.671 33.1968 108.013 32.8386 107.858 32.6189L107.863 32.6154ZM109.632 35.5579C109.572 35.4435 109.524 35.3239 109.486 35.2008C109.45 35.0288 109.423 34.8551 109.404 34.6804C109.368 34.4032 109.336 34.1401 109.25 33.9369C109.189 33.8111 109.095 33.7047 108.977 33.6292C108.86 33.5537 108.723 33.5122 108.584 33.5093C108.487 33.5082 108.392 33.5308 108.307 33.5751C107.893 33.7818 107.644 34.0062 107.713 34.4725C107.941 35.1515 108.054 35.6436 108.206 36.3132C108.222 36.4154 108.291 36.7525 108.452 36.7525C108.465 36.7525 108.478 36.7525 108.49 36.749L109.681 36.359C109.709 36.3507 109.734 36.3366 109.756 36.3175C109.777 36.2984 109.795 36.2749 109.807 36.2486C109.876 36.09 109.75 35.8222 109.628 35.5614L109.632 35.5579Z" fill="white"/>
<path d="M107.527 36.5083C107.432 35.7766 107.229 35.0631 106.924 34.3915L106.909 34.3598H106.872C106.18 34.4033 105.754 33.843 105.339 33.3062C105.202 33.1276 105.075 32.9608 104.938 32.8151C104.732 32.5855 104.511 32.3708 104.275 32.1726C104.031 31.9612 103.824 31.7744 103.743 31.6088C103.646 31.4044 103.54 31.0144 103.438 30.6362C103.365 30.3683 103.297 30.1123 103.231 29.9372C103.219 29.902 103.203 29.8644 103.19 29.828C103.064 29.4944 102.914 29.0797 102.483 29.0116C102.268 28.9752 102.032 28.967 101.808 28.9588C101.186 28.9341 100.561 28.8248 100.24 28.3773C99.943 27.9662 100.064 27.5844 100.232 27.1792C100.305 26.9994 100.358 26.8503 100.399 26.6788C100.622 25.927 100.7 24.992 100.528 24.3377C100.5 24.2322 100.467 24.128 100.431 24.0252C100.341 23.7527 100.236 23.338 100.301 23.2124C100.369 23.0867 100.439 23.0655 100.564 23.0655C100.675 23.0655 100.801 23.1031 100.918 23.136C101.004 23.1595 101.068 23.1712 101.151 23.1924C101.458 23.2652 101.922 23.3498 102.345 23.3498C103.044 23.3498 103.778 23.1994 104.413 22.9269C105.612 22.3466 106.795 21.0345 106.734 19.4088C106.575 17.7631 105.559 16.1738 103.621 14.5446C103.576 14.5035 103.523 14.4624 103.474 14.4224C103.223 14.2145 102.917 13.9514 102.91 13.7188C102.902 13.4874 103.507 13.3453 103.885 13.256C103.974 13.236 104.052 13.2196 104.12 13.1996L104.218 13.1749C104.702 13.0492 105.197 12.9189 105.608 12.6346C106.99 11.7031 106.94 10.0656 106.783 9.16349C106.775 9.14 106.77 9.11063 106.762 9.07892C106.738 8.96145 106.706 8.81462 106.595 8.81462C106.555 8.81779 106.518 8.83484 106.489 8.86278C106.449 8.8992 106.408 8.94031 106.364 8.98025C106.205 9.13178 106.03 9.3021 105.827 9.41487C105.389 9.67564 104.86 9.78606 104.353 9.89178C104.027 9.95991 103.69 10.0292 103.378 10.1385C102.003 10.6142 101.151 11.3096 100.845 12.207C100.687 12.6745 100.772 13.2642 101.077 13.8327C101.528 14.5446 102.174 15.166 102.803 15.7674C103.796 16.7189 104.819 17.6974 105.055 19.0306C105.184 19.8059 104.868 20.4613 104.092 21.0263C103.685 21.2695 103.165 21.3999 102.588 21.3999C101.857 21.3944 101.138 21.2131 100.492 20.8713C99.687 20.4695 98.9105 19.9492 98.1587 19.4452C97.0287 18.6899 95.8588 17.9088 94.5631 17.4953C94.0016 17.2381 93.3767 17.1124 92.7741 16.9902C91.9166 16.8164 91.0309 16.6378 90.3191 16.0799C90.0746 15.9189 89.8349 15.7508 89.6002 15.5759C88.9542 15.1096 88.2881 14.6245 87.5328 14.4342C87.2509 14.3367 86.976 14.3003 86.707 14.2603C86.2924 14.1992 85.9071 14.1464 85.5488 13.8903L85.0614 13.5367C84.4599 13.0974 83.8385 12.6428 83.2171 12.3292C82.1482 11.7971 81.01 11.521 79.7378 11.245C79.3314 11.1475 79.08 10.8421 78.811 10.5167C78.6325 10.2982 78.4457 10.0739 78.2096 9.91527C77.2311 9.14 76.3407 8.61963 75.1943 8.61963C75.0885 8.61963 74.9793 8.62315 74.8736 8.63138C74.2722 8.67249 73.6872 9.12708 73.2972 9.4689C72.1554 10.4674 70.9244 11.3577 69.738 12.2199C67.9643 13.5003 66.1365 14.8241 64.5719 16.5356C63.0319 18.1249 62.4751 20.1066 61.9301 22.0295C61.849 22.3137 61.7727 22.5945 61.6869 22.8787C61.5401 23.4038 61.4062 23.9442 61.2758 24.4645C60.5698 27.2954 59.8427 30.1252 57.013 31.9612C56.8262 32.0833 56.892 32.3194 57.0658 32.384C57.1398 32.4122 58.3262 32.8104 59.5091 31.624C60.2233 30.7384 60.6215 29.9208 61.4755 29.0069C61.5037 28.9787 61.6012 28.9012 61.6822 28.9094C61.7398 28.9376 61.7562 28.967 61.7398 29.068C61.6294 29.4345 61.4062 29.7552 61.1877 30.0676C60.9645 30.3883 60.7355 30.7184 60.6215 31.0955C60.3502 31.9083 59.5937 32.5673 58.923 33.144C58.923 33.144 58.8172 33.2134 58.7573 33.2909C58.6963 33.3672 58.6963 33.4001 58.6963 33.4001C58.6751 33.5787 58.8172 33.6891 59.1062 33.7008C60.692 33.7008 61.8208 32.5755 62.9097 31.4819C62.9336 31.458 62.9623 31.4395 62.9939 31.4276C63.0255 31.4156 63.0593 31.4105 63.093 31.4126C63.1526 31.4108 63.212 31.4204 63.268 31.4408C63.3408 31.4819 63.5076 31.6452 63.6368 31.758C63.9951 32.0751 64.3604 32.404 64.8397 32.5015H64.8561C65.4341 32.4205 65.9533 32.3559 66.4901 32.3559C66.6451 32.3559 66.7908 32.3594 66.9212 32.3723C67.4979 32.5462 68.0794 32.7658 68.6362 32.9737C69.0297 33.1241 69.4361 33.2744 69.8461 33.4119H69.8637C70.3923 33.3919 70.7682 32.9009 71.0454 32.4651C71.1746 32.1562 71.1147 31.8555 71.0536 31.563C71.0172 31.3809 70.9808 31.2106 70.9925 31.0426C71.09 30.9944 71.2239 31.0027 71.3672 31.0226C71.4929 31.0426 71.675 31.0226 71.7361 31.0144C71.8747 30.9944 72.0204 30.8359 71.9804 30.6291C71.8747 30.1005 71.6104 29.7751 71.3461 29.3687C71.1147 29.0234 70.895 28.6992 70.7858 28.3327C70.6108 27.8487 70.2408 27.447 69.8837 27.057C69.469 26.6059 69.079 26.1784 68.9604 25.638C68.9604 25.638 68.9251 25.5241 68.9651 25.4794C69.005 25.4348 69.1154 25.4877 69.1154 25.4877C69.3057 25.6263 69.4972 25.7813 69.6793 25.9305C70.2819 26.4192 70.9033 26.9266 71.6597 27.0405C72.3622 27.1099 73.1339 27.1991 73.8857 27.1345C74.0854 27.1016 74.1864 26.9266 74.1383 26.7598C73.8375 26.1255 73.5286 25.4442 73.3418 24.6995C73.1833 24.1392 72.8297 22.6638 73.1915 21.5502C73.2279 21.441 73.3007 21.4034 73.3665 21.4034C73.3736 21.4034 73.3818 21.4034 73.3947 21.4081C73.5169 21.4363 73.5979 21.5831 73.6144 21.6959L73.6261 21.8427C73.7318 23.358 73.8328 24.7887 74.7596 26.008C75.0075 26.4027 75.3611 26.6095 75.7029 26.8127C75.9378 26.9513 76.2103 27.077 76.3818 27.2966C76.5768 27.5433 76.6086 27.9662 76.4758 28.2222L75.3364 29.902C75.0686 30.2838 74.8078 30.6937 74.715 31.1119C74.6304 31.5348 74.6668 31.9459 74.7033 32.3441L74.7115 32.4404C74.6752 32.4176 74.6456 32.3856 74.6257 32.3476C74.1676 31.5183 74.0736 30.8159 74.3086 30.2755C74.4589 29.9255 75.3857 28.6134 75.6536 28.1823C75.7393 28.0437 75.8086 27.9063 75.7358 27.8123C75.6453 27.6948 74.9511 27.3976 74.7679 27.3976C74.7561 27.3976 74.7444 27.3976 74.7315 27.4023C74.5694 27.447 74.4636 27.5973 74.3697 27.7312C74.3485 27.7613 74.327 27.7911 74.3051 27.8205L72.9025 30.3648L72.8696 30.4588C72.7886 30.7137 72.7169 30.9334 72.7886 31.2258C72.8661 31.6076 72.9836 32.0187 73.0728 32.3183L73.1468 32.5673C73.2725 33.0101 73.39 33.4248 73.585 33.6562C73.6436 33.7268 73.7178 33.7827 73.8019 33.8194C73.8859 33.8561 73.9774 33.8726 74.0689 33.8676C74.1747 33.8676 74.2839 33.8512 74.3896 33.8347C74.5658 33.8066 74.7561 33.7866 74.8983 33.823C75.1097 33.8759 75.2553 34.0344 75.4104 34.1965C75.5643 34.3633 75.7229 34.5337 75.959 34.603C76.3936 34.7498 76.8482 34.8673 77.2875 34.9812C77.8725 35.1351 78.4786 35.2937 79.0554 35.5168C79.3807 35.6226 79.7296 35.7201 80.0667 35.7201C80.4414 35.7201 80.6729 35.6143 80.9982 35.3512C81.4528 34.9812 81.6032 34.6147 81.7171 34.0873C81.8064 33.6033 81.9685 33.5704 82.3185 33.5505C82.4889 33.5423 82.5135 33.5505 82.6803 33.4941C82.8554 33.4365 83.3628 32.8151 83.6271 32.3077C83.6999 32.1691 83.7775 32.0422 83.8503 31.933C83.9203 31.8406 83.959 31.7282 83.9607 31.6123C83.9607 31.3598 83.7493 31.2834 83.6153 31.2787H83.5249C83.5249 31.2787 82.0296 31.267 81.6196 31.2787C81.0064 31.3116 80.7386 31.9013 80.5225 32.4252C80.4367 32.6284 80.3592 32.8151 80.2582 32.9819C80.0961 33.2744 79.7789 33.453 79.3889 33.4448C79.275 33.4448 79.0225 33.3755 78.8932 33.3437C78.0839 33.144 77.2511 32.9408 76.9093 32.1362C76.8775 31.9988 76.8247 31.7133 77.0267 31.4737C77.4578 30.9745 78.0275 30.3401 78.6125 29.8856C79.4254 29.7141 80.2382 29.1126 80.6846 28.3573C80.7786 28.2269 80.8267 28.0731 80.8761 27.9262C80.9489 27.6984 81.017 27.4834 81.2249 27.3495C81.3553 27.2837 81.461 27.3048 81.4892 27.4188C81.5668 27.8417 81.4082 28.2469 81.2496 28.6404C81.2142 28.7282 81.1805 28.8167 81.1486 28.9059L81.1239 28.9705L81.1932 28.9787C81.4164 28.9987 81.6478 29.0116 81.8792 29.0116C82.7132 29.0116 83.5049 28.8695 84.2732 28.7309C85.0332 28.5923 85.8214 28.4501 86.6342 28.4501C86.72 28.4501 86.8092 28.4501 86.8985 28.4548C87.2603 28.4548 87.6092 28.4865 87.951 28.5159C88.2846 28.5441 88.63 28.577 88.9753 28.577C89.0963 28.577 89.2102 28.577 89.3242 28.5653C90.3649 28.5159 91.1214 28.0437 91.3481 27.2966C91.5631 26.6588 91.5396 25.5581 91.2788 24.0205C91.267 23.9477 91.2588 23.8995 91.2588 23.8913V23.8631C91.2588 23.8056 91.2588 23.7456 91.3364 23.7081C91.4339 23.6552 91.536 23.7081 91.583 23.8337C91.9777 24.9391 92.2056 26.2112 92.3278 27.0852C92.4617 27.9345 92.8152 28.7955 93.4167 29.7141C94.1602 30.8241 95.3877 31.4619 96.7809 31.4619C97.1062 31.4619 97.4316 31.4009 97.7523 31.3598C97.9755 31.3316 98.0612 31.3433 98.2116 31.3433C99.9842 31.3433 101.524 32.1115 102.674 33.5634C102.674 33.5634 102.694 33.5916 102.694 33.6315C102.694 33.6926 102.605 33.7537 102.527 33.7208L102.377 33.6033C101.378 32.8281 100.345 32.027 99.0491 31.8684C98.8074 31.8267 98.5626 31.8062 98.3173 31.8073C97.9504 31.8137 97.5841 31.8407 97.2202 31.8883C96.8631 31.9295 96.5295 31.9706 96.1842 31.9706C95.7824 31.9793 95.383 31.9074 95.0095 31.7591C93.5177 31.2658 92.2996 29.5508 91.9084 28.4865C91.8942 28.4567 91.8719 28.4315 91.8441 28.4136C91.8163 28.3958 91.784 28.386 91.751 28.3855C91.7099 28.3855 91.6688 28.3973 91.6241 28.4266C91.4503 28.5359 91.4209 28.5923 91.3974 28.698C91.3728 28.7873 91.5184 29.552 91.5842 29.8809C91.7792 30.6937 92.0717 31.9212 93.1359 32.3758C93.2663 32.4534 93.4002 32.5391 93.5306 32.6237C94.0627 32.9643 94.6113 33.3191 95.2409 33.3191C95.3913 33.3191 95.5416 33.2991 95.6873 33.258C96.0667 33.1758 96.452 33.1323 96.842 33.1323C98.0695 33.1323 99.3169 33.5505 100.366 34.314C100.54 34.4162 100.707 34.5536 100.865 34.6887C101.093 34.879 101.324 35.074 101.602 35.1762C101.775 35.2455 101.962 35.2819 102.162 35.2819C102.638 35.2819 102.759 35.1398 103.097 34.973C103.221 34.912 103.357 34.8788 103.495 34.8755C103.877 34.8755 104.088 35.1715 104.356 35.5497C104.518 35.7776 104.702 36.0337 104.949 36.2569C105.295 36.594 105.774 36.6351 106.152 36.6351C106.36 36.6351 106.567 36.6187 106.77 36.6069C106.965 36.5952 107.201 36.5858 107.327 36.574C107.449 36.5576 107.518 36.5411 107.518 36.5411V36.493L107.527 36.5083ZM67.1479 30.8406C67.0798 30.9662 66.913 31.0391 66.6933 31.0391C66.511 31.0415 66.3318 30.9923 66.1765 30.8969C65.8922 30.6937 65.7266 30.3566 65.7019 29.9137C65.6972 29.8116 65.6901 29.7058 65.8276 29.6048C65.8969 29.5637 65.938 29.5637 66.0191 29.5637C66.2904 29.5637 66.7262 29.7387 66.9576 30.0195C66.974 30.0394 67.3358 30.5187 67.1491 30.8441L67.1479 30.8406ZM67.5391 24.5855C67.4369 24.7159 67.283 24.8134 67.1326 24.7406C66.9905 24.6912 66.8636 24.508 66.7873 24.3706C66.6898 24.1955 66.6076 24.0452 66.3761 24.0616H66.3397C66.1365 24.0781 65.9826 24.1791 65.8194 24.3048C65.7383 24.3706 65.4082 24.6149 65.3284 24.683C64.8855 25.0577 64.438 25.443 64.3322 25.9669C64.3098 26.0604 64.2894 26.1544 64.2712 26.2488C64.2383 26.4309 64.2066 26.6212 64.0515 26.7187H64.0398C64.0186 26.7304 63.9946 26.7361 63.9705 26.7351C63.9004 26.7324 63.8331 26.7069 63.779 26.6623C63.751 26.6415 63.7281 26.6146 63.712 26.5837C63.696 26.5528 63.6871 26.5186 63.6862 26.4838C63.6087 25.5816 63.9141 24.7688 64.5472 24.192C64.9583 23.8549 65.2872 23.432 65.6079 23.0209C65.763 22.8212 65.9251 22.6145 66.0919 22.4242C66.2176 22.2985 66.4255 22.4042 66.7661 22.7766C66.9083 22.9316 67.3558 23.6928 67.559 24.192C67.5822 24.2543 67.5921 24.3208 67.5881 24.3871C67.5841 24.4535 67.5661 24.5183 67.5355 24.5773L67.5391 24.5855ZM75.004 14.097C74.8336 14.2603 74.6539 14.4224 74.4754 14.5892C73.8411 15.166 73.1868 15.7639 72.7569 16.4381C72.5536 16.7142 72.4033 17.0313 72.2565 17.3403C72.24 17.3731 72.2036 17.4413 72.1343 17.4413C72.1165 17.4404 72.099 17.436 72.0828 17.4284C72.0667 17.4207 72.0523 17.4099 72.0403 17.3966C71.9193 17.2745 72.0204 16.4252 72.1789 15.9988C72.529 15.0567 73.3207 14.0688 74.3579 13.2924C74.4729 13.2221 74.6049 13.1844 74.7397 13.1832C74.9347 13.1832 75.085 13.2724 75.1461 13.4263C75.2753 13.6342 75.2283 13.8774 75.004 14.097ZM32.6577 31.9576C32.6213 31.8965 32.5876 31.8338 32.5567 31.7697C32.451 31.5712 32.3946 31.3598 32.3417 31.1765C32.236 30.8077 32.1467 30.4858 31.7438 30.5422C31.1753 30.6244 30.622 30.6608 30.0053 30.6608C29.9959 30.6608 29.8057 30.6608 29.7446 30.7947C29.6753 30.9498 29.8303 31.0955 29.9971 31.2458C30.0899 31.3316 30.1874 31.4208 30.252 31.5183C30.366 31.6851 30.4752 31.9248 30.5809 32.1562C30.7477 32.5262 30.8946 32.8433 31.0614 32.8962C31.1378 32.9177 31.2169 32.9284 31.2963 32.9279C31.6839 32.9279 32.2149 32.7212 32.6013 32.4205C32.8163 32.2372 32.7482 32.1151 32.6507 31.9529L32.6577 31.9576ZM4.86658 31.3809L4.83487 31.3562C4.7174 31.2623 4.50597 31.274 4.36266 31.3727C4.26516 31.4408 4.16297 31.5066 4.06665 31.5724C3.74949 31.7826 3.42059 31.9976 3.07524 32.2901C2.94838 32.3958 2.87907 32.5955 2.86732 32.7494C2.85558 32.8715 2.87907 32.969 2.92841 33.0313C2.9566 33.063 3.20915 33.3426 3.26201 33.3884C3.37265 33.4874 3.51526 33.5433 3.66374 33.5458C3.78269 33.543 3.89935 33.5124 4.00439 33.4565C4.61873 33.1487 5.25305 32.0105 5.27771 31.9447C5.34232 31.7627 5.13558 31.5959 4.86658 31.3809ZM2.84266 34.0791C2.71697 33.9005 2.29879 33.4083 2.06269 33.4083C2.04272 33.4083 2.02157 33.4083 2.0063 33.4201C1.68092 33.554 1.30269 33.9769 1.28272 34.2294C1.20049 35.3301 1.16878 35.4475 0.868064 35.7858C0.782314 35.8798 0.725931 36.0983 0.823427 36.1923C0.908002 36.2769 1.98986 36.6187 2.11085 36.6187H2.13552C2.23301 36.5858 2.31406 36.3379 2.5349 35.5779C2.65236 35.1668 2.78627 34.704 2.93663 34.2858C2.94485 34.2576 2.94838 34.2165 2.85088 34.0791H2.84266Z" fill="white"/>
<path d="M35.9938 34.0062C36.4366 33.9734 36.8959 33.9405 37.2213 33.5951C37.6324 32.9972 37.9848 32.397 38.2949 31.7627C38.571 31.1929 38.5745 30.6362 38.3031 30.2015C37.4856 28.893 37.3399 28.5476 37.0063 27.6584L36.9981 27.6337L36.9746 27.6255C36.878 27.5958 36.7827 27.5617 36.6892 27.5233C36.4895 27.447 36.278 27.3612 36.0396 27.3612H36.0067C35.726 27.3694 35.5357 27.4587 35.4581 27.6138L35.4464 27.6373L36.9288 30.5633C37.0228 30.7912 37.132 31.0226 37.0756 31.3644C37.0181 31.7051 36.291 32.8516 36.0713 32.9972C36.0342 33.0269 35.9894 33.0453 35.9421 33.0501C35.9256 33.0501 35.8481 33.0348 35.8963 32.8633C36.0349 32.3887 36.2099 31.2705 36.1606 30.9134C36.1077 30.4987 34.8649 28.4419 34.8121 28.3526L34.7874 28.3174C34.5959 28.0038 34.3974 27.6784 34.4139 27.3001C34.4139 27.1251 34.576 27.0041 34.6934 26.9595C34.9096 26.8773 35.1163 26.8456 35.336 26.7962C35.8646 26.6788 36.4084 26.5613 36.6046 26.2641C37.1978 25.362 37.5502 24.4199 37.7863 23.1149C37.798 23.0573 37.8392 22.9481 37.9202 22.9481C37.9695 22.9481 38.0177 22.9645 38.0377 23.0773C38.1453 23.6943 38.1289 24.3267 37.9896 24.9373C37.8502 25.548 37.5906 26.1248 37.226 26.6341C37.1748 26.7195 37.1561 26.8204 37.1731 26.9184C37.1896 27.0241 37.307 27.1099 37.307 27.1099C37.5913 27.3048 38.632 27.1909 39.3874 26.7962C39.9641 26.808 40.5056 26.7069 41.033 26.6094C41.1998 26.5766 41.3666 26.5484 41.5287 26.5202C41.5816 26.5484 41.6227 26.5977 41.6309 26.6341C41.1881 27.1333 40.9191 27.6948 40.7817 28.3973C40.6556 28.5247 40.5256 28.6481 40.3917 28.7673C39.9077 29.2101 39.3874 29.707 39.3627 30.3401C39.3627 30.3401 39.3474 30.568 39.5953 30.5833C39.6716 30.588 39.7609 30.5481 39.8419 30.5152C39.9218 30.4746 40.0097 30.4522 40.0992 30.4494C40.1371 30.4548 40.1718 30.4733 40.1976 30.5016C40.2233 30.5299 40.2383 30.5662 40.2402 30.6044L39.6881 31.4126C39.4813 31.7497 39.5706 32.108 39.6516 32.458C39.7127 32.6483 39.6845 32.7987 39.7374 32.969C39.8748 33.3719 40.367 33.5622 40.757 33.5622C41.4759 33.5305 42.1313 33.2944 42.7645 33.0665C42.8784 33.0266 42.9877 32.9855 43.1051 32.9455C43.8005 32.6448 44.7273 32.5837 45.8291 32.7623C46.7148 32.7047 47.3809 32.1197 48.0269 31.5512C48.303 31.5594 48.5884 31.7215 48.8809 32.0387C49.8394 33.0665 51.0141 33.5657 52.473 33.5657H52.6398L52.7854 33.554C52.9358 33.5188 52.9769 33.4448 52.9851 33.3508C52.9969 33.238 52.9076 33.1241 52.7455 33.0465L51.928 32.6119C51.2737 32.1973 50.563 31.6969 50.368 31.0379C50.1566 30.3354 49.7619 29.6213 49.4659 29.1455C49.4053 29.0486 49.3415 28.9538 49.2744 28.8613C49.1605 28.6945 49.0395 28.523 48.9573 28.3444C49.8476 28.6616 50.3469 29.3194 50.9495 30.4177C51.3958 31.2341 52.5587 32.1115 53.6594 32.1115C53.8062 32.1115 53.9437 32.0951 54.0823 32.0669C54.1997 32.0434 54.2773 31.9659 54.2937 31.8637C54.3055 31.7744 54.2937 31.6887 54.1962 31.6358L53.529 31.3034C52.7373 30.8394 52.2815 30.0759 51.8387 29.3323C51.6637 29.0386 51.4863 28.7391 51.2901 28.4666C51.1644 28.2786 50.9448 28.0848 50.7545 27.9145C50.5877 27.7641 50.4291 27.6208 50.3997 27.5445C49.6773 25.5687 48.8891 23.2488 48.6977 20.668C48.6695 20.2745 48.3922 19.4088 48.0633 18.8473C47.0355 17.1735 44.5805 14.3085 44.4466 14.1663C44.3621 14.0774 44.2755 13.9905 44.187 13.9056L44.1212 13.841L39.6998 10.1678C38.8223 9.54995 38.5545 9.43954 37.9167 9.21283C37.4695 9.05993 36.9996 8.98445 36.5271 8.98964C35.901 8.98964 35.2749 9.11063 34.7627 9.33029C34.4103 9.51824 34.0685 9.73672 33.7349 9.94816C33.1711 10.31 32.5838 10.6835 31.9506 10.8949C31.4549 11.1181 30.9228 11.2814 30.4071 11.44C29.4028 11.7477 28.3668 12.0696 27.5457 12.8261C27.306 13.0445 27.111 13.2278 26.9478 13.3864C26.1889 14.1017 26.1114 14.1781 25.49 14.1781C24.0511 14.1781 23.0315 14.5317 21.9661 15.3974C21.125 16.1609 20.2922 16.8774 19.3207 17.2146C18.8861 17.3649 18.4022 17.4213 17.89 17.4706C17.1547 17.5352 17.0407 17.5435 16.3465 17.7103C15.2976 17.9499 14.1852 18.8144 13.2454 19.5463C12.9365 19.7859 12.5266 20.103 12.3316 20.2299C12.2294 20.2945 12.1084 20.3709 12.0097 20.4296C10.8397 21.1109 9.73792 21.757 8.32364 21.757H8.21792C7.16191 21.6806 6.20339 20.9523 5.88154 19.9891C5.58552 18.9049 5.90268 17.7913 6.759 16.9374C7.16543 16.5309 7.62825 16.1374 8.08049 15.7556C8.80407 15.1413 9.48655 14.5599 9.96228 13.9232C10.5144 13.1832 10.4533 11.9357 9.8319 11.2567C9.21403 10.5778 7.83264 10.2407 7.31226 10.115L7.22299 10.0938C7.17013 10.0821 7.08086 10.0703 7.03152 10.0586C6.70262 9.9928 6.38546 9.94816 6.06478 9.87064C5.2437 9.64745 4.60586 9.00961 3.87875 8.61963C3.59801 9.04955 3.50404 9.51706 3.54163 10.0374C3.67906 11.1346 4.59412 12.2728 5.60902 12.7356C5.65365 12.7521 5.69477 12.772 5.7394 12.785C6.06008 12.9224 6.39721 12.9435 6.71437 12.9435H7.1255C7.32049 12.9435 7.55659 12.9435 7.76686 12.9964C7.8786 13.0285 7.97857 13.0925 8.05451 13.1805C8.13045 13.2686 8.17908 13.3768 8.19443 13.4921C8.21088 13.6377 8.14509 13.7517 7.9595 13.8938L7.44265 14.3202C6.56871 15.0403 5.66658 15.7885 4.93477 16.693C3.95158 17.7549 3.90694 19.5991 4.36623 20.7937C4.95121 22.3678 6.56871 23.2488 7.91369 23.4191C8.15332 23.4555 8.39295 23.4766 8.6455 23.4766C9.43721 23.4766 10.189 23.2852 10.9208 23.1019C10.949 23.0937 10.9701 23.0937 10.9901 23.0937C11.023 23.0937 11.0876 23.0937 11.0993 23.2605C11.1205 23.5859 11.1405 23.9559 11.1569 24.313C11.1804 24.8945 11.2098 25.443 11.2509 25.6756C11.3472 26.1913 11.6033 26.8209 11.7748 27.2355C11.8476 27.4106 11.904 27.548 11.9204 27.6173C11.9862 27.8522 11.9251 28.1095 11.7666 28.2551C11.2145 28.7638 10.0868 29.1655 9.88006 29.1949C9.54763 29.2348 9.19406 29.2548 8.93329 29.2677C8.80407 29.2747 8.69836 29.2794 8.6455 29.2877C8.52891 29.2995 8.4199 29.3509 8.33656 29.4333C8.17799 29.5884 8.00766 30.0312 7.80445 30.5434C7.68228 30.8523 7.56012 31.173 7.43443 31.4373C7.08086 32.0223 6.49118 32.3676 5.91913 32.6965C5.77582 32.7787 5.63369 32.8633 5.49625 32.9491L5.47981 32.9655C5.24488 33.339 5.0076 33.6926 4.70336 33.9604C4.46843 34.1801 4.16654 34.2294 3.87405 34.2658H3.85409L3.84234 34.2823C3.3948 34.7944 3.25266 35.4722 3.11053 36.1347C3.09056 36.2369 3.06589 36.3379 3.04475 36.4354L3.02478 36.5294H3.08234C3.31727 36.5576 3.5522 36.6069 3.80123 36.6633C4.13013 36.7361 4.46725 36.8101 4.80086 36.8101C5.11801 36.8101 5.38583 36.7444 5.63016 36.6104C6.05656 36.4155 6.28444 36.0208 6.50763 35.6437C6.65446 35.3959 6.80482 35.1351 7.00803 34.9366C7.06433 34.8721 7.13442 34.821 7.21311 34.7873C7.2918 34.7535 7.37708 34.7379 7.46262 34.7416C7.62942 34.7416 7.81267 34.7897 7.98652 34.8391C8.14979 34.8837 8.31542 34.9283 8.474 34.9366C9.26336 34.9812 10.0104 34.4855 10.3722 34.1965C10.5308 34.0708 10.6894 33.9205 10.8433 33.7784C11.0829 33.5552 11.3272 33.3226 11.5915 33.1605C11.9122 33.0054 12.2987 32.9326 12.7779 32.9326C13.3711 32.9326 14.0007 33.0501 14.5011 33.144C14.7678 33.2133 15.042 33.2489 15.3175 33.2498C15.7672 33.2569 16.2111 33.1477 16.6061 32.9326C17.0454 32.6859 17.4871 32.4534 17.8419 32.2666C18.0486 32.1562 18.2318 32.0634 18.374 31.9823C19.0036 31.637 19.5404 30.6773 19.7389 30.2791C19.9269 29.909 20.244 29.1091 20.2475 29.1009L20.264 29.0645L19.5275 28.503L19.4993 28.5523C19.4993 28.5523 19.0118 29.3523 18.6994 29.7223C17.4025 31.4866 15.2929 31.7133 13.599 31.7133C13.4815 31.7098 13.3641 31.7051 13.249 31.7051C11.1522 31.7051 9.46188 32.4087 8.22615 33.7983C8.16976 33.8629 8.06757 33.8759 8.02645 33.8183C8.00296 33.7866 7.99474 33.7337 8.01118 33.6679C8.0351 33.544 8.08212 33.4256 8.14979 33.3191C9.46188 31.4537 11.7055 31.1777 13.5133 31.1448C14.85 31.0555 15.8215 30.8241 16.6672 30.393C17.7526 29.8409 18.5525 28.6216 18.8697 27.6537C19.0764 27.0194 19.1786 26.3416 19.2761 25.6873C19.3536 25.167 19.4347 24.6302 19.5639 24.1345C19.5757 24.1037 19.5964 24.0772 19.6234 24.0583C19.6504 24.0395 19.6825 24.0292 19.7154 24.0287C19.7307 24.0287 19.7436 24.0287 19.7671 24.0405C19.8376 24.0534 19.9668 24.1016 19.9668 24.2038C19.7836 25.2281 19.5357 26.6341 20.0032 27.8041C20.2229 28.2669 20.6857 28.4948 21.4257 28.4948C21.8721 28.4948 22.3608 28.4172 22.8353 28.3444C23.2018 28.288 23.5471 28.2305 23.8432 28.2187C23.97 28.207 24.0957 28.2023 24.2261 28.2023C24.8146 28.2023 25.3843 28.3162 25.9329 28.4255C26.4121 28.523 26.9078 28.6205 27.4153 28.6451C27.5046 28.6498 27.6032 28.6569 27.7042 28.6663C27.8793 28.6815 28.0613 28.6945 28.2493 28.6945C28.6792 28.6945 28.9846 28.6087 29.2043 28.4302C29.3582 28.3045 29.3053 28.113 29.236 27.8734L29.2242 27.8287C29.2125 27.7876 29.2008 27.743 29.1831 27.6948C29.0856 27.3777 28.9365 26.8984 29.1831 26.6741C29.2234 26.6449 29.272 26.6292 29.3217 26.6294C29.3617 26.6294 29.4192 26.6412 29.4357 26.7069L29.5167 26.983C29.626 27.3659 29.7399 27.7641 29.9843 28.1048C30.5011 28.7626 31.2963 29.3887 32.2877 29.9055C32.9268 30.3437 33.6938 31.0837 33.7561 32.1162C33.7561 32.5837 33.3003 32.9079 32.9632 33.1112C32.4299 33.3755 31.5195 33.6726 31.0896 33.6726C31.0326 33.6761 30.9755 33.6665 30.9228 33.6444C30.3049 33.3155 29.9878 32.7823 29.6506 32.2172C29.4758 31.9065 29.2763 31.6103 29.0539 31.3316C28.7321 30.9745 28.3256 30.8359 27.7771 30.8805C27.2485 30.9216 26.761 31.0226 26.1842 31.1448C26.1282 31.1549 26.0754 31.1784 26.0302 31.2131C25.985 31.2479 25.9488 31.2929 25.9246 31.3445C25.899 31.406 25.8886 31.4728 25.8941 31.5392C25.8996 31.6056 25.921 31.6698 25.9564 31.7262C26.2571 32.2619 26.546 32.7494 26.855 33.265L26.9936 33.4976C27.0664 33.6233 27.225 33.6397 27.3542 33.6397C27.4247 33.6397 27.501 33.6362 27.5821 33.628C27.6678 33.6233 27.7571 33.6163 27.8464 33.6163C28.1142 33.6163 28.2857 33.6809 28.3949 33.8148C28.4889 33.9557 28.57 34.1073 28.651 34.2529C28.8542 34.6147 29.0621 34.993 29.411 35.2608C29.7282 35.5427 30.1863 35.7001 30.6667 35.7001C30.8782 35.7001 31.0814 35.6672 31.2764 35.6108C32.6625 35.1762 34.011 34.7298 35.2949 34.0427C35.2949 34.0427 35.8035 34.0344 35.9985 34.018L35.9938 34.0062ZM38.2984 18.4656C38.275 18.5513 38.2209 18.6077 38.1598 18.6077C38.1363 18.6077 38.0706 18.596 38.0506 18.4855C37.8192 17.3038 37.6806 16.7224 37.4081 16.1774C37.3235 16.0035 37.2131 15.8567 37.1203 15.7263C36.9206 15.4549 36.7503 15.2224 36.9417 14.9064C36.9981 14.8124 37.1402 14.7513 37.2941 14.7513C37.3716 14.7513 37.4409 14.7678 37.502 14.796C37.7299 14.9064 37.9531 15.1824 38.181 15.6417C38.7495 16.8081 38.2985 18.4538 38.2938 18.4703L38.2984 18.4656ZM45.7317 30.2427C45.7317 30.2427 45.6941 30.5763 45.5402 30.7219C45.3816 30.864 44.8213 30.9416 44.5241 30.9333C44.2281 30.9216 44.1259 30.8805 44.066 30.7912C43.9955 30.689 44.1095 30.4905 44.1095 30.4905C44.1459 30.4177 44.4912 29.6976 45.1901 29.5073C45.1901 29.5073 45.4133 29.4251 45.6295 29.5308C45.8444 29.6365 45.7434 30.1733 45.7352 30.2474L45.7317 30.2427ZM47.7544 25.5934C47.7344 25.7578 47.6851 25.9174 47.6087 26.0644C47.5723 26.1302 47.5113 26.2723 47.308 26.2758C47.0849 26.2758 47.1001 26.0162 47.1001 25.9798C47.1001 25.9798 47.0719 25.2516 46.9333 24.9473C46.783 24.6137 46.0523 23.6752 45.6295 23.7163C45.5237 23.7245 45.2477 23.8913 45.0445 24.1544C44.7966 24.4763 44.7966 24.5162 44.7191 24.5656C44.6416 24.6137 44.5441 24.589 44.5124 24.3988C44.4795 24.2073 44.4419 24.0534 44.5323 23.6916C44.6216 23.3298 44.7109 23.2488 44.8166 22.9892C44.8166 22.9892 45.0363 22.4805 45.1173 22.3549C45.3452 22.0095 45.6459 22.0342 45.6459 22.0342C45.727 22.0377 45.9866 22.0048 46.2685 22.3549C46.5927 22.7613 46.5234 22.7249 46.6126 22.867C46.7019 23.008 46.8006 23.1595 47.0684 23.452C47.3362 23.7456 47.6322 24.313 47.7145 24.6666C47.7955 25.0201 47.792 25.3209 47.7462 25.5945L47.7544 25.5934Z" fill="white"/>
</svg>
