<svg width="264" height="43" viewBox="0 0 264 43" fill="none" xmlns="http://www.w3.org/2000/svg">
<path fill-rule="evenodd" clip-rule="evenodd" d="M230.122 29.6577V18.4985H223.977V30.8441C223.977 35.0211 228.301 38.4112 233.636 38.4112C238.973 38.4112 243.295 35.0211 243.295 30.8441V18.4985H237.197V29.6577C237.197 31.5136 235.611 33.0219 233.661 33.0219C231.71 33.0219 230.125 31.5148 230.125 29.6577H230.122Z" fill="white"/>
<path d="M263.343 5.23426H257.154V37.7158H263.343V5.23426ZM252.884 5.23426H246.695V37.7158H252.884V5.23426Z" fill="white"/>
<path fill-rule="evenodd" clip-rule="evenodd" d="M133.474 12.0496H130.109V37.7158H123.525V6.72489H134.843C139.996 6.72489 144.17 10.8221 144.17 15.8766C144.17 20.1806 141.142 23.7891 137.066 24.7687L146.161 37.7158H138.399L131.82 27.5691V20.1571H133.348C135.778 20.1571 137.749 18.3399 137.749 16.101C137.749 13.8609 135.904 12.0449 133.47 12.0449L133.474 12.0496Z" fill="white"/>
<path d="M165.61 29.3687C165.651 28.9458 165.671 28.5112 165.666 28.0683C165.76 21.3716 161.327 17.6938 155.678 17.6938C150.029 17.6938 145.449 22.3302 145.449 28.0484C145.449 33.7654 150.029 38.4112 155.678 38.4112C159.989 38.4112 163.354 36.4601 165.086 33.4036L160.063 31.0872C159.42 32.4698 157.925 33.4447 156.185 33.44C153.776 33.4365 151.997 31.6687 151.976 29.5837V29.3722H165.606L165.61 29.3687ZM151.956 25.8095C151.973 24.8187 152.379 23.8743 153.086 23.1798C153.793 22.4852 154.744 22.0961 155.735 22.0961C156.726 22.0961 157.677 22.4852 158.384 23.1798C159.091 23.8743 159.497 24.8187 159.514 25.8095H151.951H151.956ZM190.243 37.7158L190.235 5.23426H184.067V20.6034C182.425 18.9777 180.239 17.9945 177.85 17.9945C172.738 17.9945 168.596 22.5252 168.596 28.1165C168.596 33.7079 172.738 38.2397 177.85 38.2397C180.264 38.2397 182.45 37.2119 184.095 35.5532V37.7146H190.243V37.7158ZM179.605 32.9702C177.098 32.9702 175.061 30.7419 175.061 27.999C175.061 25.2562 177.093 23.0303 179.605 23.0303C182.116 23.0303 184.148 25.2562 184.148 27.999C184.148 30.7419 182.116 32.969 179.605 32.969V32.9702ZM216.403 20.8466C218.098 19.2655 219.134 17.1488 219.134 14.8241C219.134 12.7191 218.321 10.781 216.903 9.26097C215.428 7.63525 212.816 6.72489 209.283 6.72489H198.706V37.7158H212.368C217.602 37.63 221.82 33.6761 221.82 28.8283C221.82 25.3009 220.576 22.7848 216.408 20.8466H216.403ZM211.223 32.3347H205.301V12.0484H209.43C211.243 12.0484 212.713 13.707 212.713 15.523C212.714 15.9543 212.629 16.3815 212.464 16.78C212.299 17.1785 212.057 17.5407 211.752 17.8457C211.448 18.1507 211.085 18.3927 210.687 18.5577C210.289 18.7227 209.861 18.8075 209.43 18.8074H207.281V24.3788H211.223C213.42 24.3788 215.083 26.1501 215.083 28.3491C215.005 30.6197 213.612 32.189 211.223 32.3347Z" fill="white"/>
<path d="M55.5224 42.2875C67.1984 42.2875 76.6661 32.821 76.6661 21.1438C76.6661 9.46653 67.1984 -2.86102e-06 55.5224 -2.86102e-06C43.8451 -2.86102e-06 34.3786 9.46653 34.3786 21.1438C34.3786 32.821 43.8451 42.2875 55.5224 42.2875Z" fill="white" fill-opacity="0.3"/>
<path d="M54.0141 30.9533C52.8195 30.279 52.5834 28.9505 51.9585 28.1377C51.7024 27.8158 51.2795 27.4587 51.1656 27.1662C50.0884 24.4105 49.7231 22.8623 49.3448 20.1723C49.1499 18.7945 48.236 17.6327 46.9027 16.0023C46.3213 15.2916 45.4932 14.117 44.7766 13.4228C42.3721 11.3953 41.0718 10.2688 39.4672 9.18814C39.1537 8.97549 38.8215 8.79188 38.4746 8.63958H38.4664C38.4602 8.63859 38.4544 8.63572 38.4499 8.63135C37.9143 8.39642 37.4303 8.33064 36.7714 8.29423C36.6837 8.28914 36.596 8.2864 36.5082 8.28601C35.3124 8.28601 34.1754 8.72063 33.0289 9.60632C32.1961 10.1514 31.2411 10.4556 30.3155 10.7481C29.1479 11.1181 27.9368 11.5046 26.9501 12.3656C26.7739 12.4924 26.6129 12.671 26.4544 12.8378C26.2382 13.0692 26.0844 13.3335 25.7555 13.4392C25.47 13.5038 25.2668 13.5038 25.0354 13.5238C24.6707 13.5526 24.3082 13.6044 23.95 13.6788C22.7354 13.9666 21.8051 14.7149 20.8254 15.5078C20.7162 15.597 20.6022 15.6863 20.4918 15.7756C19.8575 16.2795 18.7651 16.7388 18.1472 16.7588C16.4205 16.8116 15.1977 17.2181 13.9255 18.1648C12.6123 19.1692 11.2062 20.2052 9.64978 20.8431C9.29228 20.9818 8.91262 21.0546 8.52916 21.058C8.12273 21.058 7.54128 20.9687 7.07846 20.5388C6.48879 19.9938 6.29379 18.9448 6.64736 18.2424C7.17596 17.2016 8.25194 16.3524 9.13058 15.7263C10.2641 14.8688 11.3612 13.7434 10.8738 11.8781C10.3487 10.1713 8.26486 9.62276 6.88699 9.25744C6.49701 9.15525 6.15871 9.06598 5.96019 8.97318C5.52557 8.76996 5.22016 8.56205 4.92415 8.36236C4.63655 8.15404 4.32741 7.97722 4.00204 7.83494C3.9471 7.81452 3.88914 7.80341 3.83055 7.80205C3.63555 7.80205 3.48167 7.89602 3.36421 8.08279C2.86733 8.94851 2.72167 9.83067 2.92959 10.6917C3.25027 12.106 4.64458 13.3934 6.0988 13.6213C6.24446 13.6577 6.41126 13.6706 6.57454 13.6871C6.72489 13.6988 6.87877 13.7153 7.0209 13.7434C6.05612 14.489 5.17577 15.3378 4.39555 16.2748C3.33132 17.527 3.03883 19.5956 3.7166 21.0827C4.30276 22.5698 5.78987 23.7809 7.33454 24.0252C7.63877 24.0816 7.96885 24.1098 8.34122 24.1098C8.87803 24.1098 9.41837 24.0534 9.93522 23.997C10.0609 23.9853 10.1913 23.9676 10.3123 23.9559C10.3651 25.1341 10.4063 25.8659 11.0605 27.5362C11.1005 27.6419 11.0723 27.8205 10.9348 27.9427C10.8209 28.0437 9.86944 28.4384 9.59692 28.4947C9.48166 28.5139 9.36486 28.5222 9.24805 28.5194H8.85806C8.72885 28.5194 8.56087 28.5194 8.39877 28.5429C7.80087 28.6287 7.50486 29.1326 7.29342 29.6212C7.16421 29.9173 7.07024 30.178 6.98801 30.4012C6.7848 30.958 6.65911 31.3033 6.26913 31.5148C6.26913 31.5148 5.45627 30.7912 5.31766 30.6925C5.12972 30.5814 4.91577 30.5218 4.69744 30.5198C4.18529 30.5198 3.7307 30.8452 3.29138 31.1577C3.15839 31.2571 3.02122 31.3507 2.88025 31.4384C2.51141 31.6698 2.23419 32.0645 2.15431 32.4745C1.55642 32.7752 0.971438 33.137 0.698919 33.7349C0.569707 33.991 0.545039 34.3034 0.520372 34.6041C0.510865 34.747 0.494401 34.8893 0.471036 35.0305C0.424676 35.1261 0.371688 35.2184 0.312458 35.3066C0.146832 35.5344 0 35.8716 0 36.0795C0 36.5176 0.162102 36.6844 0.40643 36.8923C0.703617 37.1038 1.51178 37.3505 2.08853 37.4938C2.13069 37.5049 2.17414 37.5105 2.21775 37.5102C2.39394 37.5102 2.5349 37.4198 2.66999 37.334C2.73459 37.2941 2.7992 37.2494 2.8732 37.2166C3.34894 37.3305 4.05138 37.4773 4.73385 37.4773C5.08742 37.4773 5.40928 37.4362 5.69707 37.3599C6.39246 37.1719 6.98566 36.2298 7.30635 35.7212C7.38387 35.5991 7.4614 35.4781 7.48137 35.4616C7.50173 35.4528 7.52383 35.4488 7.54597 35.4499C7.65169 35.4499 7.82319 35.498 8.00526 35.5509C8.2167 35.612 8.46103 35.6801 8.68069 35.7012C9.46418 35.7706 10.2124 35.2831 10.6964 34.9213C10.8949 34.7744 11.1099 34.5677 11.3213 34.3692C11.5562 34.1448 11.797 33.9134 12.005 33.7748C12.2794 33.6637 12.5734 33.6085 12.8695 33.6127C12.9752 33.6127 13.0927 33.6162 13.2196 33.6292C13.7834 33.7466 14.5234 33.8852 15.2435 33.8852C15.9624 33.8852 16.5074 33.7631 16.982 33.5152L17.4213 33.2873C17.897 33.0442 18.3845 32.7963 18.8473 32.5438C19.7412 32.0598 20.0995 31.2634 20.392 30.6256L20.4648 30.4635C20.6363 30.0935 20.8959 29.4227 20.9652 29.2559C21.1027 29.2759 21.246 29.2841 21.3963 29.2841C21.8791 29.2841 22.3548 29.1831 22.8141 29.0844C23.2652 28.9881 23.7362 28.8906 24.2073 28.8906C24.4563 28.8906 24.683 28.9141 24.9109 28.9717C25.7566 29.1385 26.8702 29.3299 28.0037 29.3299C28.591 29.3353 29.177 29.2738 29.7505 29.1467C29.8808 29.2724 30.0277 29.3816 30.1698 29.4873C30.3108 29.593 30.4411 29.6905 30.5633 29.8092C30.433 29.8328 30.3017 29.8504 30.1698 29.862C29.7751 29.9067 29.3652 29.9513 29.0645 30.2732C28.7397 30.1402 28.3909 30.0762 28.0402 30.0852C27.6425 30.0944 27.2459 30.1325 26.8538 30.1992C26.6952 30.2227 26.5401 30.2438 26.3898 30.2638C25.7848 30.3366 25.3702 30.5692 25.1552 30.9627C25.0248 31.2188 24.9273 31.4878 25.1388 31.9259L26.3287 33.9005C26.4755 34.1566 26.7187 34.3645 26.8855 34.3762C26.9747 34.3845 27.0934 34.3762 27.2226 34.3645C27.3248 34.3563 27.4305 34.348 27.5315 34.348C27.723 34.348 27.8369 34.3809 27.8781 34.4455C27.938 34.5395 27.9955 34.6288 28.0519 34.7216C28.2962 35.1045 28.5476 35.5027 28.9294 35.8399C29.5073 36.3438 30.4376 36.554 31.3116 36.352C31.6405 36.2298 31.9694 36.1112 32.2983 35.9937C33.3273 35.6237 34.3915 35.242 35.4229 34.8038L37.1343 34.5595C37.6993 34.4491 38.1304 33.6855 38.2726 33.3684L38.309 33.2956C38.309 33.2956 38.8258 32.2713 38.9832 31.6499C38.9915 31.7556 38.9915 31.8965 38.9915 32.0927C38.9915 33.0594 39.1629 34.2834 40.8122 34.2188C41.7307 34.1812 42.95 33.6374 43.8193 33.4788C44.7296 33.3237 45.916 33.7102 46.7982 33.2791C47.6557 32.9302 48.1479 32.263 48.2853 32.4016C48.854 32.9571 49.5298 33.391 50.2715 33.6769C51.0133 33.9629 51.8054 34.0949 52.5998 34.065C53.832 34.025 53.9659 33.0371 53.1049 32.5896C54.7858 32.7846 55.2827 31.8754 54.9691 31.5817C54.7694 31.395 54.6519 31.3022 54.0141 30.9439V30.9533ZM38.9092 30.0347C38.2749 29.1772 37.8614 28.5687 37.8004 27.7841C38.6085 27.6901 39.3485 27.4223 40.5514 27.3577C40.2378 28.288 39.1618 28.7309 38.9057 30.0312L38.9092 30.0347ZM110.388 35.4933C110.331 35.3794 110.274 35.2701 110.241 35.1879C110.188 35.0059 110.18 34.8144 110.168 34.6112C110.157 34.388 110.145 34.1554 110.074 33.9369C109.884 33.3026 109.205 32.9079 108.657 32.6847C108.637 32.4451 108.592 32.1855 108.369 32.0269C107.421 31.3515 106.925 30.9697 106.657 30.7665C106.499 30.6444 106.442 30.5997 106.41 30.588C106.297 30.5357 106.175 30.5076 106.051 30.5058C105.633 30.5058 105.299 30.8394 104.975 31.1565L104.752 31.3762C104.744 31.3844 104.74 31.3844 104.727 31.3844C104.625 31.3844 104.414 31.0719 104.361 30.9298C104.267 30.6773 104.195 30.4376 104.121 30.2062C104 29.7752 103.844 29.3549 103.654 28.9493C103.297 28.2387 102.533 28.2269 101.858 28.2152H101.667C101.359 28.2152 100.951 28.1705 100.878 27.9662C100.805 27.7641 100.956 27.3812 101.05 27.1016C101.114 26.9066 101.175 26.7234 101.195 26.5448C101.367 25.7813 101.378 24.764 101.228 23.9394C101.398 23.9441 101.569 23.9629 101.748 23.9841C101.902 24.0052 102.061 24.0205 102.228 24.0287H102.375C103.391 24.0287 104.248 23.829 104.995 23.4238C106.502 22.5169 107.426 21.0545 107.462 19.4981C107.409 18.6852 107.218 18.0145 106.804 17.1852C106.247 16.0881 105.321 15.0074 103.967 13.8856C104.751 13.7235 105.402 13.5332 106.003 13.1538C107.231 12.3738 107.774 10.9595 107.535 9.16817C107.47 8.74529 107.307 8.01349 106.95 7.82319C106.899 7.79575 106.841 7.78162 106.783 7.78208C106.523 7.78208 106.271 8.06282 106.048 8.31067C105.965 8.40465 105.886 8.48922 105.816 8.5503C105.398 8.92384 104.906 9.02134 104.39 9.12353C104.118 9.17639 103.838 9.23278 103.573 9.33027C102.337 9.73318 100.237 10.6506 100.049 12.3209C99.8667 13.9713 101.041 15.0814 102.18 16.1538C102.557 16.5109 102.92 16.8481 103.227 17.2063C103.885 17.9663 104.447 18.7216 104.3 19.5756C104.248 19.8681 103.833 20.3156 103.439 20.4942C103.138 20.5999 102.826 20.6516 102.508 20.6516C101.456 20.6516 100.443 20.076 99.5542 19.5627L99.4274 19.4899C97.3635 18.0591 95.2303 16.5767 92.585 16.2948C91.5772 16.101 90.7032 15.4913 89.854 14.897C89.659 14.7595 89.4624 14.6245 89.2643 14.4917C88.3744 13.9693 87.3941 13.619 86.3746 13.4592C85.846 13.3899 85.4278 13.0445 84.985 12.6839C84.7558 12.4851 84.5116 12.3045 84.2544 12.1436C83.2171 11.4737 82.0606 11.0099 80.8479 10.7774C80.7281 10.7415 80.6066 10.7117 80.4837 10.6882C80.1666 10.6224 79.8365 10.5496 79.6086 10.3099C79.2598 9.89881 78.7793 9.37021 78.199 8.95673C77.4226 8.43636 76.2162 7.8831 75.1637 7.8831C74.9509 7.88054 74.7388 7.90661 74.5329 7.96063C73.948 8.10746 73.4934 8.44811 73.0129 8.8099L72.8309 8.94381C71.8677 9.69559 70.5873 10.7293 69.5794 11.4482C66.5723 13.5896 65.4423 14.5281 63.9517 16.1585C60.1152 20.3473 61.2817 26.6177 57.9656 30.2509C57.1081 31.1929 56.8685 31.3151 56.556 31.5759C56.1684 31.9001 56.0791 33.628 58.5905 32.7822C57.4453 33.7619 58.1677 34.2165 58.9194 34.2329C60.2456 34.2611 61.7081 33.8018 63.1423 32.2748C64.1384 33.7079 65.8734 33.0465 66.7755 33.1205C67.6213 33.1887 69.1777 34.1072 70.0834 34.0544C71.4648 33.9686 71.9734 32.5872 71.8348 31.819C72.0579 31.819 72.119 31.7662 72.1801 31.6569C72.3434 32.4569 72.4526 33.0054 72.6077 33.4071C72.6194 33.4365 72.6394 33.4729 72.6594 33.5129V33.5223C72.758 33.6961 72.9613 34.0826 73.1645 34.2693C73.3994 34.5536 73.753 34.5912 74.0337 34.5912C74.1477 34.5912 74.2616 34.583 74.3708 34.5795C74.4965 34.5701 74.6187 34.5665 74.7362 34.5665C74.8411 34.6445 74.9415 34.7284 75.0369 34.8179C75.2601 35.0129 75.4879 35.2173 75.7687 35.2936C77.0772 35.6308 78.1626 35.9315 79.2151 36.3015C79.4301 36.3708 79.759 36.4601 80.0879 36.4601C80.1936 36.4601 80.2993 36.4519 80.3968 36.4319C81.3976 36.2157 82.288 35.3594 82.5065 34.388C82.5229 34.2376 82.6322 34.2247 82.8189 34.2165C82.954 34.213 83.1079 34.2047 83.1937 34.1072C83.7375 33.6726 84.0711 33.0747 84.3965 32.5015C84.4646 32.3805 84.5339 32.2548 84.6079 32.1326C84.6922 31.988 84.7398 31.825 84.7468 31.6577C84.7537 31.4905 84.7198 31.3241 84.6479 31.173C84.5422 30.9615 84.3519 30.8076 84.0746 30.7148C83.5543 30.568 82.974 30.5551 82.4736 30.5551H81.9215C81.6607 30.5551 81.36 30.5551 81.0675 30.5269L80.8561 30.2955C80.7022 30.1569 80.5072 30.1252 80.3158 30.0923L80.1783 30.0688L80.6529 29.6976C80.8444 29.7023 81.0311 29.7058 81.2179 29.7058C82.3232 29.7058 83.3393 29.6083 84.2462 29.418C85.0528 29.224 85.8787 29.1216 86.7082 29.1126C86.8186 29.1126 86.9314 29.1126 87.0453 29.1208C87.1793 29.1291 87.3179 29.1373 87.4518 29.149C87.9475 29.1819 88.4561 29.2195 88.9636 29.2195C89.6343 29.2195 90.1793 29.1573 90.6668 29.028C90.7279 29.2712 90.7761 29.5108 90.8207 29.7469C90.9992 30.6326 91.166 31.4701 91.8485 32.1973C92.2596 32.7212 92.7953 33.0219 93.3168 33.319C93.5846 33.4694 93.8572 33.6397 94.1203 33.8148C94.4703 33.9933 94.7511 34.0215 95.1528 34.0215C95.7131 34.0215 96.4285 33.7819 96.8349 33.7819C98.5299 33.7819 99.8385 34.7004 101.256 35.8093C101.509 35.9761 101.818 36.0619 102.171 36.0619C102.601 36.0619 103.085 35.9327 103.508 35.7036L103.541 35.7529C103.799 36.1182 104.073 36.5012 104.438 36.7984C104.962 37.2729 105.641 37.3387 106.236 37.3387C106.434 37.3387 106.641 37.3293 106.841 37.3211C107.125 37.3093 107.413 37.2976 107.69 37.3093C107.799 37.4632 108.011 37.5819 108.177 37.5736C108.344 37.5654 110.177 36.9675 110.274 36.9358C110.372 36.9029 110.509 36.8219 110.509 36.8219C110.953 36.594 110.631 35.9526 110.396 35.4804L110.388 35.4933ZM72.4397 30.0946C71.9969 29.2136 71.6503 28.4207 71.1018 27.5926C72.3587 27.8886 73.7917 27.7453 73.7917 27.7453C73.3865 28.3232 72.9225 29.1479 72.4397 30.0946Z" fill="black" fill-opacity="0.2"/>
<path d="M80.2547 30.9662C80.1889 30.884 80.0597 30.8722 79.9857 30.8722C79.954 30.8722 79.9246 30.8722 79.8917 30.8769C79.665 30.9051 79.4571 30.9169 79.2421 30.9169C79.1313 30.9164 79.0204 30.9137 78.9097 30.9087C78.8193 30.9087 78.7382 30.9004 78.6572 30.9004C78.5232 30.9004 78.414 30.9087 78.3048 30.9298H78.2789L78.2672 30.9533C78.2507 30.9862 77.8325 31.7168 77.8889 32.1808C77.95 32.6812 78.4575 32.7822 78.8439 32.8598C78.9825 32.888 79.1411 32.9161 79.3032 32.9161C79.5793 32.9161 79.7625 32.8222 79.8553 32.6401C80.0579 32.1463 80.2025 31.6307 80.2864 31.1037C80.2934 31.0786 80.2941 31.0523 80.2886 31.0269C80.283 31.0015 80.2714 30.9779 80.2547 30.958V30.9662ZM107.863 32.6154C107.623 32.2701 107.205 31.9929 106.871 31.7697C106.738 31.6871 106.61 31.5965 106.488 31.4983L106.42 31.449C106.344 31.3838 106.248 31.348 106.148 31.348C105.769 31.348 105.359 31.8026 105.351 31.9565C105.339 32.1843 105.664 32.5908 106.086 33.0959L106.176 33.2051C106.391 33.46 106.622 33.5986 106.866 33.6151C107.114 33.6151 107.309 33.5328 107.517 33.339C107.671 33.1969 108.013 32.8386 107.858 32.619L107.863 32.6154ZM109.632 35.5579C109.572 35.4435 109.524 35.324 109.486 35.2008C109.45 35.0288 109.423 34.8552 109.404 34.6805C109.368 34.4033 109.336 34.1401 109.25 33.9369C109.189 33.8112 109.095 33.7047 108.977 33.6292C108.86 33.5538 108.723 33.5123 108.584 33.5093C108.487 33.5082 108.392 33.5308 108.307 33.5751C107.893 33.7819 107.644 34.0062 107.713 34.4726C107.941 35.1515 108.054 35.6437 108.206 36.3132C108.222 36.4154 108.291 36.7526 108.452 36.7526C108.465 36.7526 108.478 36.7526 108.49 36.749L109.681 36.3591C109.709 36.3508 109.734 36.3366 109.756 36.3176C109.778 36.2985 109.795 36.275 109.807 36.2486C109.876 36.0901 109.75 35.8222 109.628 35.5615L109.632 35.5579Z" fill="white"/>
<path d="M107.527 36.5082C107.432 35.7765 107.229 35.0631 106.924 34.3915L106.909 34.3598H106.872C106.18 34.4032 105.754 33.8429 105.339 33.3061C105.202 33.1276 105.075 32.9608 104.938 32.8151C104.732 32.5855 104.511 32.3707 104.275 32.1726C104.031 31.9611 103.824 31.7744 103.743 31.6087C103.646 31.4044 103.54 31.0144 103.438 30.6361C103.365 30.3683 103.297 30.1122 103.231 29.9372C103.219 29.902 103.203 29.8644 103.19 29.828C103.064 29.4944 102.914 29.0797 102.483 29.0116C102.268 28.9752 102.032 28.967 101.808 28.9587C101.186 28.9341 100.561 28.8248 100.24 28.3773C99.943 27.9661 100.064 27.5844 100.232 27.1791C100.305 26.9994 100.358 26.8502 100.399 26.6787C100.622 25.9269 100.7 24.9919 100.528 24.3376C100.5 24.2322 100.467 24.1279 100.431 24.0252C100.341 23.7527 100.236 23.338 100.301 23.2123C100.369 23.0866 100.439 23.0655 100.564 23.0655C100.675 23.0655 100.801 23.1031 100.918 23.136C101.004 23.1595 101.068 23.1712 101.151 23.1924C101.458 23.2652 101.922 23.3498 102.345 23.3498C103.044 23.3498 103.778 23.1994 104.413 22.9269C105.612 22.3466 106.795 21.0345 106.734 19.4088C106.575 17.7631 105.559 16.1738 103.621 14.5446C103.576 14.5034 103.523 14.4623 103.474 14.4224C103.223 14.2145 102.917 13.9514 102.91 13.7188C102.902 13.4874 103.507 13.3452 103.885 13.256C103.974 13.236 104.052 13.2195 104.12 13.1996L104.218 13.1749C104.702 13.0492 105.197 12.9188 105.608 12.6346C106.99 11.7031 106.94 10.0656 106.783 9.16347C106.775 9.13997 106.77 9.11061 106.762 9.07889C106.738 8.96142 106.706 8.81459 106.595 8.81459C106.555 8.81776 106.518 8.83481 106.489 8.86275C106.449 8.89917 106.408 8.94028 106.364 8.98022C106.205 9.13175 106.03 9.30207 105.827 9.41484C105.389 9.67561 104.86 9.78603 104.353 9.89175C104.027 9.95988 103.69 10.0292 103.378 10.1384C102.003 10.6142 101.151 11.3096 100.845 12.207C100.687 12.6745 100.772 13.2642 101.077 13.8327C101.528 14.5446 102.174 15.1659 102.803 15.7674C103.796 16.7188 104.819 17.6973 105.055 19.0306C105.184 19.8058 104.868 20.4613 104.092 21.0263C103.685 21.2694 103.165 21.3998 102.588 21.3998C101.857 21.3944 101.138 21.2131 100.492 20.8712C99.687 20.4695 98.9105 19.9491 98.1587 19.4452C97.0287 18.6899 95.8588 17.9088 94.5631 17.4953C94.0016 17.238 93.3767 17.1123 92.7741 16.9902C91.9166 16.8163 91.0309 16.6378 90.3191 16.0798C90.0746 15.9188 89.8349 15.7508 89.6002 15.5759C88.9542 15.1096 88.2881 14.6244 87.5328 14.4341C87.2509 14.3366 86.976 14.3002 86.707 14.2603C86.2924 14.1992 85.9071 14.1463 85.5488 13.8903L85.0614 13.5367C84.4599 13.0974 83.8385 12.6428 83.2171 12.3292C82.1482 11.797 81.01 11.521 79.7378 11.245C79.3314 11.1475 79.08 10.842 78.811 10.5167C78.6325 10.2982 78.4457 10.0738 78.2096 9.91524C77.2311 9.13997 76.3407 8.6196 75.1943 8.6196C75.0885 8.6196 74.9793 8.62312 74.8736 8.63135C74.2722 8.67246 73.6872 9.12705 73.2972 9.46887C72.1554 10.4673 70.9244 11.3577 69.738 12.2199C67.9643 13.5003 66.1365 14.8241 64.5719 16.5356C63.0319 18.1249 62.4751 20.1065 61.9301 22.0294C61.849 22.3137 61.7727 22.5945 61.6869 22.8787C61.5401 23.4038 61.4062 23.9441 61.2758 24.4645C60.5698 27.2954 59.8427 30.1252 57.013 31.9611C56.8262 32.0833 56.892 32.3194 57.0658 32.384C57.1398 32.4122 58.3262 32.8104 59.5091 31.624C60.2233 30.7383 60.6215 29.9208 61.4755 29.0069C61.5037 28.9787 61.6012 28.9012 61.6822 28.9094C61.7398 28.9376 61.7562 28.967 61.7398 29.068C61.6294 29.4345 61.4062 29.7551 61.1877 30.0676C60.9645 30.3883 60.7355 30.7184 60.6215 31.0954C60.3502 31.9083 59.5937 32.5673 58.923 33.144C58.923 33.144 58.8172 33.2133 58.7573 33.2909C58.6963 33.3672 58.6963 33.4001 58.6963 33.4001C58.6751 33.5786 58.8172 33.6891 59.1062 33.7008C60.692 33.7008 61.8208 32.5755 62.9097 31.4819C62.9336 31.458 62.9623 31.4395 62.9939 31.4275C63.0255 31.4156 63.0593 31.4105 63.093 31.4126C63.1526 31.4108 63.212 31.4204 63.268 31.4408C63.3408 31.4819 63.5076 31.6452 63.6368 31.7579C63.9951 32.0751 64.3604 32.404 64.8397 32.5015H64.8561C65.4341 32.4204 65.9533 32.3558 66.4901 32.3558C66.6451 32.3558 66.7908 32.3594 66.9212 32.3723C67.4979 32.5461 68.0794 32.7658 68.6362 32.9737C69.0297 33.1241 69.4361 33.2744 69.8461 33.4118H69.8637C70.3923 33.3919 70.7682 32.9009 71.0454 32.4651C71.1746 32.1561 71.1147 31.8554 71.0536 31.5629C71.0172 31.3809 70.9808 31.2105 70.9925 31.0426C71.09 30.9944 71.2239 31.0026 71.3672 31.0226C71.4929 31.0426 71.675 31.0226 71.7361 31.0144C71.8747 30.9944 72.0204 30.8358 71.9804 30.6291C71.8747 30.1005 71.6104 29.7751 71.3461 29.3687C71.1147 29.0233 70.895 28.6991 70.7858 28.3326C70.6108 27.8487 70.2408 27.447 69.8837 27.057C69.469 26.6059 69.079 26.1783 68.9604 25.638C68.9604 25.638 68.9251 25.524 68.9651 25.4794C69.005 25.4348 69.1154 25.4876 69.1154 25.4876C69.3057 25.6262 69.4972 25.7813 69.6793 25.9305C70.2819 26.4191 70.9033 26.9266 71.6597 27.0405C72.3622 27.1098 73.1339 27.1991 73.8857 27.1345C74.0854 27.1016 74.1864 26.9266 74.1383 26.7598C73.8375 26.1255 73.5286 25.4442 73.3418 24.6994C73.1833 24.1391 72.8297 22.6638 73.1915 21.5502C73.2279 21.4409 73.3007 21.4034 73.3665 21.4034C73.3736 21.4034 73.3818 21.4034 73.3947 21.4081C73.5169 21.4362 73.5979 21.5831 73.6144 21.6958L73.6261 21.8427C73.7318 23.358 73.8328 24.7887 74.7596 26.008C75.0075 26.4027 75.3611 26.6094 75.7029 26.8126C75.9378 26.9512 76.2103 27.0769 76.3818 27.2966C76.5768 27.5433 76.6086 27.9661 76.4758 28.2222L75.3364 29.902C75.0686 30.2837 74.8078 30.6937 74.715 31.1119C74.6304 31.5347 74.6668 31.9459 74.7033 32.3441L74.7115 32.4404C74.6752 32.4176 74.6456 32.3856 74.6257 32.3476C74.1676 31.5183 74.0736 30.8159 74.3086 30.2755C74.4589 29.9255 75.3857 28.6134 75.6536 28.1823C75.7393 28.0437 75.8086 27.9062 75.7358 27.8123C75.6453 27.6948 74.9511 27.3976 74.7679 27.3976C74.7561 27.3976 74.7444 27.3976 74.7315 27.4023C74.5694 27.4469 74.4636 27.5973 74.3697 27.7312C74.3485 27.7613 74.327 27.791 74.3051 27.8205L72.9025 30.3648L72.8696 30.4588C72.7886 30.7137 72.7169 30.9333 72.7886 31.2258C72.8661 31.6076 72.9836 32.0187 73.0728 32.3182L73.1468 32.5673C73.2725 33.0101 73.39 33.4248 73.585 33.6562C73.6436 33.7267 73.7178 33.7826 73.8019 33.8194C73.8859 33.8561 73.9774 33.8726 74.0689 33.8676C74.1747 33.8676 74.2839 33.8512 74.3896 33.8347C74.5658 33.8065 74.7561 33.7866 74.8983 33.823C75.1097 33.8758 75.2553 34.0344 75.4104 34.1965C75.5643 34.3633 75.7229 34.5336 75.959 34.6029C76.3936 34.7498 76.8482 34.8672 77.2875 34.9812C77.8725 35.1351 78.4786 35.2936 79.0554 35.5168C79.3807 35.6225 79.7296 35.72 80.0667 35.72C80.4414 35.72 80.6729 35.6143 80.9982 35.3512C81.4528 34.9812 81.6032 34.6147 81.7171 34.0873C81.8064 33.6033 81.9685 33.5704 82.3185 33.5505C82.4889 33.5422 82.5135 33.5504 82.6803 33.4941C82.8554 33.4365 83.3628 32.8151 83.6271 32.3077C83.6999 32.1691 83.7775 32.0422 83.8503 31.933C83.9203 31.8406 83.959 31.7282 83.9607 31.6123C83.9607 31.3597 83.7493 31.2834 83.6153 31.2787H83.5249C83.5249 31.2787 82.0296 31.2669 81.6196 31.2787C81.0064 31.3116 80.7386 31.9012 80.5225 32.4251C80.4367 32.6283 80.3592 32.8151 80.2582 32.9819C80.0961 33.2744 79.7789 33.453 79.3889 33.4447C79.275 33.4447 79.0225 33.3754 78.8932 33.3437C78.0839 33.144 77.2511 32.9408 76.9093 32.1362C76.8775 31.9987 76.8247 31.7133 77.0267 31.4737C77.4578 30.9744 78.0275 30.3401 78.6125 29.8855C79.4254 29.714 80.2382 29.1126 80.6846 28.3573C80.7786 28.2269 80.8267 28.073 80.8761 27.9262C80.9489 27.6983 81.017 27.4834 81.2249 27.3495C81.3553 27.2837 81.461 27.3048 81.4892 27.4188C81.5668 27.8416 81.4082 28.2469 81.2496 28.6404C81.2142 28.7282 81.1805 28.8167 81.1486 28.9059L81.1239 28.9705L81.1932 28.9787C81.4164 28.9987 81.6478 29.0116 81.8792 29.0116C82.7132 29.0116 83.5049 28.8695 84.2732 28.7308C85.0332 28.5922 85.8214 28.4501 86.6342 28.4501C86.72 28.4501 86.8092 28.4501 86.8985 28.4548C87.2603 28.4548 87.6092 28.4865 87.951 28.5159C88.2846 28.5441 88.63 28.577 88.9753 28.577C89.0963 28.577 89.2102 28.577 89.3242 28.5652C90.3649 28.5159 91.1214 28.0437 91.3481 27.2966C91.5631 26.6588 91.5396 25.5581 91.2788 24.0205C91.267 23.9477 91.2588 23.8995 91.2588 23.8913V23.8631C91.2588 23.8055 91.2588 23.7456 91.3364 23.708C91.4339 23.6552 91.536 23.708 91.583 23.8337C91.9777 24.9391 92.2056 26.2112 92.3278 27.0852C92.4617 27.9344 92.8152 28.7955 93.4167 29.714C94.1602 30.8241 95.3877 31.4619 96.7809 31.4619C97.1062 31.4619 97.4316 31.4008 97.7523 31.3597C97.9755 31.3315 98.0612 31.3433 98.2116 31.3433C99.9842 31.3433 101.524 32.1115 102.674 33.5634C102.674 33.5634 102.694 33.5916 102.694 33.6315C102.694 33.6926 102.605 33.7537 102.527 33.7208L102.377 33.6033C101.378 32.828 100.345 32.0269 99.0491 31.8683C98.8074 31.8266 98.5626 31.8062 98.3173 31.8073C97.9504 31.8137 97.5841 31.8407 97.2202 31.8883C96.8631 31.9294 96.5295 31.9705 96.1842 31.9705C95.7824 31.9793 95.383 31.9074 95.0095 31.7591C93.5177 31.2657 92.2996 29.5508 91.9084 28.4865C91.8942 28.4567 91.8719 28.4314 91.8441 28.4136C91.8163 28.3957 91.784 28.386 91.751 28.3855C91.7099 28.3855 91.6688 28.3972 91.6241 28.4266C91.4503 28.5359 91.4209 28.5922 91.3974 28.698C91.3728 28.7872 91.5184 29.5519 91.5842 29.8808C91.7792 30.6937 92.0717 31.9212 93.1359 32.3758C93.2663 32.4533 93.4002 32.5391 93.5306 32.6236C94.0627 32.9643 94.6113 33.319 95.2409 33.319C95.3913 33.319 95.5416 33.2991 95.6873 33.258C96.0667 33.1757 96.452 33.1323 96.842 33.1323C98.0695 33.1323 99.3169 33.5504 100.366 34.314C100.54 34.4162 100.707 34.5536 100.865 34.6887C101.093 34.879 101.324 35.074 101.602 35.1762C101.775 35.2455 101.962 35.2819 102.162 35.2819C102.638 35.2819 102.759 35.1398 103.097 34.973C103.221 34.912 103.357 34.8787 103.495 34.8755C103.877 34.8755 104.088 35.1715 104.356 35.5497C104.518 35.7776 104.702 36.0337 104.949 36.2569C105.295 36.594 105.774 36.6351 106.152 36.6351C106.36 36.6351 106.567 36.6186 106.77 36.6069C106.965 36.5952 107.201 36.5858 107.327 36.574C107.449 36.5576 107.518 36.5411 107.518 36.5411V36.493L107.527 36.5082ZM67.1479 30.8405C67.0798 30.9662 66.913 31.039 66.6933 31.039C66.511 31.0415 66.3318 30.9922 66.1765 30.8969C65.8922 30.6937 65.7266 30.3566 65.7019 29.9137C65.6972 29.8115 65.6901 29.7058 65.8276 29.6048C65.8969 29.5637 65.938 29.5637 66.0191 29.5637C66.2904 29.5637 66.7262 29.7387 66.9576 30.0194C66.974 30.0394 67.3358 30.5187 67.1491 30.844L67.1479 30.8405ZM67.5391 24.5855C67.4369 24.7159 67.283 24.8134 67.1326 24.7405C66.9905 24.6912 66.8636 24.508 66.7873 24.3705C66.6898 24.1955 66.6076 24.0452 66.3761 24.0616H66.3397C66.1365 24.078 65.9826 24.1791 65.8194 24.3048C65.7383 24.3705 65.4082 24.6149 65.3284 24.683C64.8855 25.0577 64.438 25.443 64.3322 25.9669C64.3098 26.0604 64.2894 26.1544 64.2712 26.2488C64.2383 26.4309 64.2066 26.6212 64.0515 26.7187H64.0398C64.0186 26.7304 63.9946 26.736 63.9705 26.7351C63.9004 26.7324 63.8331 26.7068 63.779 26.6623C63.751 26.6415 63.7281 26.6146 63.712 26.5837C63.696 26.5528 63.6871 26.5186 63.6862 26.4837C63.6087 25.5816 63.9141 24.7687 64.5472 24.192C64.9583 23.8549 65.2872 23.432 65.6079 23.0209C65.763 22.8212 65.9251 22.6144 66.0919 22.4241C66.2176 22.2984 66.4255 22.4042 66.7661 22.7765C66.9083 22.9316 67.3558 23.6928 67.559 24.192C67.5822 24.2543 67.5921 24.3208 67.5881 24.3871C67.5841 24.4535 67.5661 24.5183 67.5355 24.5773L67.5391 24.5855ZM75.004 14.097C74.8336 14.2603 74.6539 14.4224 74.4754 14.5892C73.8411 15.1659 73.1868 15.7638 72.7569 16.4381C72.5536 16.7141 72.4033 17.0313 72.2565 17.3402C72.24 17.3731 72.2036 17.4412 72.1343 17.4412C72.1165 17.4404 72.099 17.436 72.0828 17.4283C72.0667 17.4207 72.0523 17.4099 72.0403 17.3966C71.9193 17.2744 72.0204 16.4252 72.1789 15.9988C72.529 15.0567 73.3207 14.0688 74.3579 13.2924C74.4729 13.2221 74.6049 13.1843 74.7397 13.1831C74.9347 13.1831 75.085 13.2724 75.1461 13.4263C75.2753 13.6342 75.2283 13.8774 75.004 14.097ZM32.6577 31.9576C32.6213 31.8965 32.5876 31.8338 32.5567 31.7697C32.451 31.5712 32.3946 31.3597 32.3417 31.1765C32.236 30.8076 32.1467 30.4858 31.7438 30.5422C31.1753 30.6244 30.622 30.6608 30.0053 30.6608C29.9959 30.6608 29.8057 30.6608 29.7446 30.7947C29.6753 30.9498 29.8303 31.0954 29.9971 31.2458C30.0899 31.3315 30.1874 31.4208 30.252 31.5183C30.366 31.6851 30.4752 31.9247 30.5809 32.1561C30.7477 32.5262 30.8946 32.8433 31.0614 32.8962C31.1378 32.9177 31.2169 32.9284 31.2963 32.9279C31.6839 32.9279 32.2149 32.7211 32.6013 32.4204C32.8163 32.2372 32.7482 32.115 32.6507 31.9529L32.6577 31.9576ZM4.86658 31.3809L4.83487 31.3562C4.7174 31.2622 4.50597 31.274 4.36266 31.3726C4.26516 31.4408 4.16297 31.5066 4.06665 31.5723C3.74949 31.7826 3.42059 31.9976 3.07524 32.29C2.94838 32.3958 2.87907 32.5955 2.86732 32.7493C2.85558 32.8715 2.87907 32.969 2.92841 33.0313C2.9566 33.063 3.20915 33.3425 3.26201 33.3883C3.37265 33.4874 3.51526 33.5433 3.66374 33.5458C3.78269 33.5429 3.89935 33.5124 4.00439 33.4565C4.61873 33.1487 5.25305 32.0105 5.27771 31.9447C5.34232 31.7626 5.13558 31.5958 4.86658 31.3809ZM2.84266 34.079C2.71697 33.9005 2.29879 33.4083 2.06269 33.4083C2.04272 33.4083 2.02157 33.4083 2.0063 33.4201C1.68092 33.554 1.30269 33.9768 1.28272 34.2294C1.20049 35.33 1.16878 35.4475 0.868064 35.7858C0.782314 35.8798 0.725931 36.0983 0.823427 36.1922C0.908002 36.2768 1.98986 36.6186 2.11085 36.6186H2.13552C2.23301 36.5858 2.31406 36.3379 2.5349 35.5779C2.65236 35.1668 2.78627 34.704 2.93663 34.2858C2.94485 34.2576 2.94838 34.2165 2.85088 34.079H2.84266Z" fill="white"/>
<path d="M35.9937 34.0062C36.4366 33.9733 36.8959 33.9404 37.2213 33.5951C37.6324 32.9972 37.9848 32.3969 38.2949 31.7626C38.5709 31.1929 38.5745 30.6361 38.3031 30.2015C37.4855 28.8929 37.3399 28.5476 37.0063 27.6584L36.9981 27.6337L36.9746 27.6255C36.8779 27.5958 36.7827 27.5617 36.6891 27.5233C36.4894 27.4469 36.278 27.3612 36.0396 27.3612H36.0067C35.7259 27.3694 35.5356 27.4587 35.4581 27.6137L35.4464 27.6372L36.9288 30.5633C37.0227 30.7912 37.132 31.0226 37.0756 31.3644C37.018 31.7051 36.2909 32.8515 36.0713 32.9972C36.0342 33.0269 35.9893 33.0452 35.9421 33.05C35.9256 33.05 35.8481 33.0348 35.8962 32.8633C36.0349 32.3887 36.2099 31.2704 36.1605 30.9133C36.1077 30.4987 34.8649 28.4419 34.812 28.3526L34.7874 28.3174C34.5959 28.0037 34.3974 27.6784 34.4138 27.3001C34.4138 27.1251 34.5759 27.0041 34.6934 26.9595C34.9095 26.8772 35.1163 26.8455 35.3359 26.7962C35.8645 26.6787 36.4084 26.5613 36.6046 26.2641C37.1978 25.3619 37.5502 24.4199 37.7863 23.1148C37.798 23.0573 37.8391 22.948 37.9202 22.948C37.9695 22.948 38.0177 22.9645 38.0376 23.0772C38.1453 23.6943 38.1289 24.3266 37.9896 24.9373C37.8502 25.548 37.5906 26.1248 37.2259 26.6341C37.1748 26.7194 37.156 26.8203 37.1731 26.9184C37.1895 27.0241 37.307 27.1098 37.307 27.1098C37.5913 27.3048 38.632 27.1909 39.3873 26.7962C39.9641 26.8079 40.5056 26.7069 41.033 26.6094C41.1998 26.5765 41.3666 26.5483 41.5287 26.5201C41.5816 26.5483 41.6227 26.5977 41.6309 26.6341C41.1881 27.1333 40.9191 27.6948 40.7816 28.3972C40.6556 28.5247 40.5255 28.6481 40.3916 28.7673C39.9077 29.2101 39.3873 29.707 39.3626 30.3401C39.3626 30.3401 39.3474 30.568 39.5952 30.5833C39.6716 30.588 39.7609 30.548 39.8419 30.5151C39.9218 30.4746 40.0096 30.4521 40.0992 30.4494C40.137 30.4548 40.1718 30.4732 40.1975 30.5015C40.2233 30.5298 40.2383 30.5662 40.2401 30.6044L39.688 31.4126C39.4813 31.7497 39.5706 32.108 39.6516 32.458C39.7127 32.6483 39.6845 32.7987 39.7374 32.969C39.8748 33.3719 40.367 33.5622 40.757 33.5622C41.4758 33.5305 42.1313 33.2944 42.7644 33.0665C42.8784 33.0266 42.9876 32.9854 43.1051 32.9455C43.8005 32.6448 44.7273 32.5837 45.8291 32.7623C46.7148 32.7047 47.3808 32.1197 48.0269 31.5512C48.3029 31.5594 48.5884 31.7215 48.8809 32.0387C49.8394 33.0665 51.014 33.5657 52.473 33.5657H52.6398L52.7854 33.554C52.9358 33.5187 52.9769 33.4447 52.9851 33.3508C52.9968 33.238 52.9076 33.124 52.7455 33.0465L51.9279 32.6119C51.2736 32.1972 50.563 31.6968 50.368 31.0379C50.1565 30.3354 49.7619 29.6212 49.4658 29.1455C49.4053 29.0486 49.3414 28.9538 49.2744 28.8612C49.1604 28.6944 49.0394 28.5229 48.9572 28.3444C49.8476 28.6615 50.3468 29.3193 50.9494 30.4176C51.3958 31.234 52.5587 32.1115 53.6594 32.1115C53.8062 32.1115 53.9436 32.0951 54.0822 32.0669C54.1997 32.0434 54.2772 31.9658 54.2937 31.8636C54.3054 31.7744 54.2937 31.6886 54.1962 31.6358L53.529 31.3033C52.7372 30.8393 52.2815 30.0758 51.8386 29.3323C51.6636 29.0386 51.4862 28.7391 51.2901 28.4665C51.1644 28.2786 50.9447 28.0848 50.7544 27.9145C50.5876 27.7641 50.4291 27.6208 50.3997 27.5444C49.6773 25.5687 48.8891 23.2487 48.6976 20.668C48.6694 20.2745 48.3922 19.4088 48.0633 18.8473C47.0355 17.1734 44.5805 14.3084 44.4465 14.1663C44.3621 14.0774 44.2755 13.9904 44.1869 13.9055L44.1212 13.8409L39.6998 10.1678C38.8223 9.54993 38.5545 9.43951 37.9166 9.2128C37.4695 9.0599 36.9996 8.98442 36.527 8.98962C35.9009 8.98962 35.2748 9.11061 34.7627 9.33027C34.4103 9.51821 34.0685 9.7367 33.7349 9.94813C33.171 10.3099 32.5837 10.6835 31.9506 10.8949C31.4549 11.1181 30.9228 11.2814 30.4071 11.4399C29.4028 11.7477 28.3667 12.0696 27.5456 12.826C27.306 13.0445 27.111 13.2278 26.9477 13.3863C26.1889 14.1017 26.1114 14.1781 25.49 14.1781C24.051 14.1781 23.0314 14.5316 21.966 15.3974C21.125 16.1609 20.2921 16.8774 19.3207 17.2145C18.8861 17.3649 18.4021 17.4213 17.89 17.4706C17.1546 17.5352 17.0407 17.5434 16.3465 17.7102C15.2975 17.9499 14.1851 18.8144 13.2454 19.5462C12.9365 19.7859 12.5265 20.103 12.3315 20.2299C12.2293 20.2945 12.1083 20.3708 12.0097 20.4296C10.8397 21.1109 9.73789 21.7569 8.3236 21.7569H8.21789C7.16187 21.6806 6.20335 20.9523 5.8815 19.9891C5.58549 18.9049 5.90264 17.7913 6.75897 16.9373C7.1654 16.5309 7.62821 16.1374 8.08045 15.7556C8.80404 15.1413 9.48651 14.5598 9.96225 13.9232C10.5143 13.1831 10.4533 11.9356 9.83186 11.2567C9.21399 10.5777 7.8326 10.2406 7.31223 10.1149L7.22295 10.0938C7.17009 10.082 7.08082 10.0703 7.03149 10.0586C6.70258 9.99277 6.38543 9.94813 6.06475 9.87061C5.24366 9.64742 4.60583 9.00959 3.87872 8.6196C3.59797 9.04952 3.504 9.51704 3.54159 10.0374C3.67902 11.1345 4.59408 12.2728 5.60898 12.7356C5.65362 12.752 5.69473 12.772 5.73937 12.7849C6.06005 12.9224 6.39717 12.9435 6.71433 12.9435H7.12546C7.32045 12.9435 7.55655 12.9435 7.76682 12.9964C7.87857 13.0285 7.97853 13.0925 8.05447 13.1805C8.13041 13.2685 8.17904 13.3768 8.19439 13.4921C8.21084 13.6377 8.14506 13.7517 7.95946 13.8938L7.44261 14.3202C6.56867 15.0403 5.66654 15.7885 4.93473 16.693C3.95154 17.7549 3.90691 19.5991 4.3662 20.7937C4.95117 22.3677 6.56867 23.2487 7.91365 23.4191C8.15328 23.4555 8.39291 23.4766 8.64546 23.4766C9.43717 23.4766 10.189 23.2852 10.9208 23.1019C10.949 23.0937 10.9701 23.0937 10.9901 23.0937C11.023 23.0937 11.0876 23.0937 11.0993 23.2605C11.1205 23.5859 11.1404 23.9559 11.1569 24.313C11.1804 24.8944 11.2097 25.443 11.2508 25.6756C11.3472 26.1912 11.6032 26.8209 11.7747 27.2355C11.8476 27.4105 11.9039 27.548 11.9204 27.6173C11.9862 27.8522 11.9251 28.1095 11.7665 28.2551C11.2144 28.7637 10.0868 29.1655 9.88002 29.1948C9.54759 29.2348 9.19402 29.2547 8.93325 29.2677C8.80404 29.2747 8.69832 29.2794 8.64546 29.2876C8.52887 29.2995 8.41986 29.3509 8.33653 29.4333C8.17795 29.5883 8.00762 30.0312 7.80441 30.5433C7.68224 30.8523 7.56008 31.1729 7.43439 31.4372C7.08082 32.0222 6.49114 32.3676 5.91909 32.6965C5.77578 32.7787 5.63365 32.8633 5.49621 32.949L5.47977 32.9655C5.24484 33.339 5.00756 33.6926 4.70332 33.9604C4.46839 34.1801 4.16651 34.2294 3.87402 34.2658H3.85405L3.8423 34.2823C3.39476 34.7944 3.25262 35.4722 3.11049 36.1347C3.09052 36.2369 3.06585 36.3379 3.04471 36.4354L3.02474 36.5294H3.0823C3.31723 36.5576 3.55216 36.6069 3.80119 36.6633C4.13009 36.7361 4.46722 36.8101 4.80082 36.8101C5.11797 36.8101 5.3858 36.7443 5.63012 36.6104C6.05652 36.4154 6.28441 36.0207 6.50759 35.6437C6.65442 35.3958 6.80478 35.1351 7.00799 34.9365C7.06429 34.872 7.13438 34.821 7.21307 34.7873C7.29176 34.7535 7.37704 34.7379 7.46258 34.7415C7.62938 34.7415 7.81263 34.7897 7.98648 34.839C8.14976 34.8837 8.31538 34.9283 8.47396 34.9365C9.26333 34.9812 10.0104 34.4855 10.3722 34.1965C10.5308 34.0708 10.6894 33.9205 10.8432 33.7783C11.0829 33.5551 11.3272 33.3226 11.5915 33.1605C11.9122 33.0054 12.2986 32.9326 12.7779 32.9326C13.3711 32.9326 14.0007 33.05 14.5011 33.144C14.7677 33.2133 15.042 33.2488 15.3175 33.2497C15.7672 33.2569 16.2111 33.1476 16.6061 32.9326C17.0454 32.6859 17.4871 32.4533 17.8418 32.2666C18.0486 32.1561 18.2318 32.0633 18.3739 31.9823C19.0036 31.6369 19.5404 30.6772 19.7389 30.279C19.9268 29.909 20.244 29.1091 20.2475 29.1009L20.264 29.0644L19.5274 28.503L19.4993 28.5523C19.4993 28.5523 19.0118 29.3522 18.6993 29.7223C17.4025 31.4866 15.2928 31.7133 13.599 31.7133C13.4815 31.7098 13.364 31.7051 13.2489 31.7051C11.1522 31.7051 9.46184 32.4087 8.22611 33.7983C8.16972 33.8629 8.06753 33.8758 8.02642 33.8183C8.00292 33.7866 7.9947 33.7337 8.01115 33.6679C8.03507 33.544 8.08209 33.4256 8.14976 33.319C9.46184 31.4537 11.7054 31.1776 13.5132 31.1448C14.85 31.0555 15.8214 30.8241 16.6672 30.393C17.7525 29.8409 18.5525 28.6216 18.8696 27.6537C19.0764 27.0194 19.1786 26.3416 19.2761 25.6873C19.3536 25.1669 19.4347 24.6301 19.5639 24.1344C19.5756 24.1037 19.5964 24.0771 19.6234 24.0583C19.6504 24.0394 19.6825 24.0291 19.7154 24.0287C19.7307 24.0287 19.7436 24.0287 19.7671 24.0405C19.8376 24.0534 19.9668 24.1015 19.9668 24.2037C19.7835 25.228 19.5357 26.6341 20.0032 27.804C20.2228 28.2669 20.6857 28.4947 21.4257 28.4947C21.8721 28.4947 22.3607 28.4172 22.8353 28.3444C23.2018 28.288 23.5471 28.2304 23.8431 28.2187C23.97 28.2069 24.0957 28.2023 24.2261 28.2023C24.8146 28.2023 25.3843 28.3162 25.9328 28.4254C26.4121 28.5229 26.9078 28.6204 27.4152 28.6451C27.5045 28.6498 27.6032 28.6568 27.7042 28.6662C27.8792 28.6815 28.0613 28.6944 28.2492 28.6944C28.6792 28.6944 28.9846 28.6087 29.2042 28.4301C29.3581 28.3044 29.3053 28.113 29.236 27.8733L29.2242 27.8287C29.2125 27.7876 29.2007 27.743 29.1831 27.6948C29.0856 27.3776 28.9364 26.8984 29.1831 26.674C29.2234 26.6448 29.2719 26.6292 29.3217 26.6294C29.3616 26.6294 29.4192 26.6411 29.4356 26.7069L29.5167 26.983C29.6259 27.3659 29.7399 27.7641 29.9842 28.1048C30.5011 28.7626 31.2963 29.3886 32.2877 29.9055C32.9267 30.3436 33.6938 31.0837 33.756 32.1162C33.756 32.5837 33.3003 32.9079 32.9631 33.1111C32.4298 33.3754 31.5195 33.6726 31.0896 33.6726C31.0325 33.6761 30.9755 33.6664 30.9228 33.6444C30.3049 33.3155 29.9877 32.7822 29.6506 32.2172C29.4758 31.9064 29.2763 31.6103 29.0539 31.3315C28.732 30.9744 28.3256 30.8358 27.777 30.8805C27.2484 30.9216 26.761 31.0226 26.1842 31.1448C26.1281 31.1549 26.0753 31.1783 26.0302 31.2131C25.985 31.2478 25.9488 31.2929 25.9246 31.3444C25.899 31.406 25.8885 31.4728 25.894 31.5392C25.8996 31.6056 25.9209 31.6697 25.9563 31.7262C26.257 32.2619 26.546 32.7493 26.8549 33.265L26.9935 33.4976C27.0664 33.6233 27.225 33.6397 27.3542 33.6397C27.4246 33.6397 27.501 33.6362 27.582 33.628C27.6678 33.6233 27.7571 33.6162 27.8463 33.6162C28.1142 33.6162 28.2857 33.6808 28.3949 33.8147C28.4889 33.9557 28.5699 34.1072 28.651 34.2529C28.8542 34.6147 29.0621 34.9929 29.411 35.2607C29.7281 35.5427 30.1863 35.7001 30.6667 35.7001C30.8781 35.7001 31.0813 35.6672 31.2763 35.6108C32.6624 35.1762 34.0109 34.7298 35.2948 34.0426C35.2948 34.0426 35.8034 34.0344 35.9984 34.018L35.9937 34.0062ZM38.2984 18.4655C38.2749 18.5513 38.2209 18.6077 38.1598 18.6077C38.1363 18.6077 38.0705 18.5959 38.0506 18.4855C37.8192 17.3038 37.6805 16.7224 37.408 16.1773C37.3234 16.0035 37.213 15.8566 37.1202 15.7263C36.9205 15.4549 36.7502 15.2223 36.9417 14.9063C36.9981 14.8124 37.1402 14.7513 37.2941 14.7513C37.3716 14.7513 37.4409 14.7677 37.502 14.7959C37.7299 14.9063 37.9531 15.1824 38.1809 15.6417C38.7495 16.8081 38.2984 18.4538 38.2937 18.4702L38.2984 18.4655ZM45.7316 30.2426C45.7316 30.2426 45.694 30.5762 45.5401 30.7219C45.3816 30.864 44.8213 30.9415 44.5241 30.9333C44.2281 30.9216 44.1259 30.8805 44.066 30.7912C43.9955 30.689 44.1094 30.4905 44.1094 30.4905C44.1458 30.4176 44.4912 29.6976 45.1901 29.5073C45.1901 29.5073 45.4133 29.4251 45.6294 29.5308C45.8444 29.6365 45.7434 30.1733 45.7351 30.2473L45.7316 30.2426ZM47.7544 25.5933C47.7344 25.7578 47.685 25.9173 47.6087 26.0644C47.5723 26.1302 47.5112 26.2723 47.308 26.2758C47.0848 26.2758 47.1001 26.0162 47.1001 25.9798C47.1001 25.9798 47.0719 25.2515 46.9333 24.9473C46.7829 24.6137 46.0523 23.6751 45.6294 23.7162C45.5237 23.7245 45.2477 23.8913 45.0444 24.1544C44.7966 24.4762 44.7966 24.5162 44.7191 24.5655C44.6415 24.6137 44.544 24.589 44.5123 24.3987C44.4794 24.2073 44.4418 24.0534 44.5323 23.6916C44.6216 23.3298 44.7108 23.2487 44.8166 22.9891C44.8166 22.9891 45.0362 22.4805 45.1173 22.3548C45.3452 22.0095 45.6459 22.0341 45.6459 22.0341C45.7269 22.0377 45.9865 22.0048 46.2684 22.3548C46.5926 22.7613 46.5233 22.7248 46.6126 22.867C46.7019 23.0079 46.8005 23.1595 47.0684 23.452C47.3362 23.7456 47.6322 24.313 47.7144 24.6665C47.7955 25.0201 47.792 25.3208 47.7461 25.5945L47.7544 25.5933Z" fill="white"/>
</svg>
